<svg width="92" height="28" viewBox="0 0 92 28" fill="none" xmlns="http://www.w3.org/2000/svg">
<rect width="92" height="28" rx="14" fill="#767676"/>
<path d="M12.644 15.66H24.236V16.85H12.644V15.66ZM17.67 16.402H19.126V21.148H17.67V16.402ZM14.044 9.038H22.78V14.092H14.044V9.038ZM21.352 10.2H15.5V12.93H21.352V10.2ZM25.5089 15.058H37.0729V16.22H25.5089V15.058ZM30.5629 13.532H32.0189V15.506H30.5629V13.532ZM26.9929 12.874H35.7849V14.008H26.9929V12.874ZM26.9929 8.702H35.7009V9.836H28.4629V13.504H26.9929V8.702ZM28.0289 10.788H35.3789V11.88H28.0289V10.788ZM31.2769 17.004C32.6769 17.004 33.7596 17.1813 34.5249 17.536C35.2996 17.8813 35.6869 18.3947 35.6869 19.076C35.6869 19.748 35.2996 20.2567 34.5249 20.602C33.7596 20.9567 32.6769 21.134 31.2769 21.134C29.8862 21.134 28.8036 20.9567 28.0289 20.602C27.2636 20.2567 26.8809 19.748 26.8809 19.076C26.8809 18.3947 27.2636 17.8813 28.0289 17.536C28.8036 17.1813 29.8862 17.004 31.2769 17.004ZM31.2769 18.096C30.3156 18.096 29.5876 18.18 29.0929 18.348C28.5982 18.5067 28.3509 18.7493 28.3509 19.076C28.3509 19.4027 28.5982 19.65 29.0929 19.818C29.5876 19.9767 30.3156 20.056 31.2769 20.056C32.2476 20.056 32.9802 19.9767 33.4749 19.818C33.9696 19.65 34.2169 19.4027 34.2169 19.076C34.2169 18.7493 33.9696 18.5067 33.4749 18.348C32.9802 18.18 32.2476 18.096 31.2769 18.096ZM41.4118 9.752H42.6158V10.69C42.6158 11.4833 42.4758 12.23 42.1958 12.93C41.9158 13.63 41.5098 14.2413 40.9778 14.764C40.4458 15.2773 39.7971 15.6693 39.0318 15.94L38.2898 14.778C38.9618 14.5447 39.5311 14.218 39.9978 13.798C40.4645 13.378 40.8145 12.902 41.0478 12.37C41.2905 11.8287 41.4118 11.2687 41.4118 10.69V9.752ZM41.7058 9.752H42.8958V10.69C42.8958 11.2127 43.0125 11.7167 43.2458 12.202C43.4791 12.6873 43.8198 13.1213 44.2678 13.504C44.7158 13.8773 45.2618 14.1667 45.9058 14.372L45.2058 15.52C44.4498 15.2773 43.8105 14.918 43.2878 14.442C42.7745 13.966 42.3825 13.406 42.1118 12.762C41.8411 12.1087 41.7058 11.418 41.7058 10.69V9.752ZM38.6958 9.262H45.5698V10.452H38.6958V9.262ZM46.9278 8.366H48.3838V16.01H46.9278V8.366ZM47.9918 11.474H50.1898V12.678H47.9918V11.474ZM44.2678 16.304C45.1451 16.304 45.9011 16.402 46.5358 16.598C47.1705 16.7847 47.6605 17.06 48.0058 17.424C48.3511 17.7787 48.5238 18.208 48.5238 18.712C48.5238 19.2253 48.3511 19.6593 48.0058 20.014C47.6605 20.378 47.1705 20.6533 46.5358 20.84C45.9011 21.036 45.1451 21.134 44.2678 21.134C43.3905 21.134 42.6298 21.036 41.9858 20.84C41.3511 20.6533 40.8611 20.378 40.5158 20.014C40.1798 19.6593 40.0118 19.2253 40.0118 18.712C40.0118 18.208 40.1798 17.7787 40.5158 17.424C40.8611 17.06 41.3511 16.7847 41.9858 16.598C42.6298 16.402 43.3905 16.304 44.2678 16.304ZM44.2678 17.466C43.6798 17.466 43.1758 17.5127 42.7558 17.606C42.3358 17.6993 42.0138 17.8393 41.7898 18.026C41.5658 18.2127 41.4538 18.4413 41.4538 18.712C41.4538 18.992 41.5658 19.23 41.7898 19.426C42.0138 19.6127 42.3358 19.7573 42.7558 19.86C43.1758 19.9533 43.6798 20 44.2678 20C44.8651 20 45.3691 19.9533 45.7798 19.86C46.1998 19.7573 46.5218 19.6127 46.7458 19.426C46.9698 19.23 47.0818 18.992 47.0818 18.712C47.0818 18.4413 46.9698 18.2127 46.7458 18.026C46.5218 17.8393 46.1998 17.6993 45.7798 17.606C45.3691 17.5127 44.8651 17.466 44.2678 17.466ZM59.4653 14.512H60.9213V16.402H59.4653V14.512ZM55.9233 8.548H57.3792V9.598H63.0353V8.548H64.4913V12.804H55.9233V8.548ZM57.3792 10.69V11.698H63.0353V10.69H57.3792ZM54.4253 13.686H65.9893V14.848H54.4253V13.686ZM55.7833 15.898H64.5333V18.922H57.2533V20.322H55.8113V17.886H63.0913V16.99H55.7833V15.898ZM55.8113 19.916H64.8973V21.036H55.8113V19.916ZM75.7462 8.352H77.2162V21.148H75.7462V8.352ZM76.8382 13.406H79.1482V14.624H76.8382V13.406ZM72.4422 9.71H73.8702C73.8702 10.9513 73.6788 12.1367 73.2962 13.266C72.9228 14.386 72.3115 15.4173 71.4622 16.36C70.6222 17.3027 69.5022 18.124 68.1022 18.824L67.2902 17.704C68.4475 17.1067 69.4042 16.4253 70.1602 15.66C70.9255 14.8947 71.4948 14.036 71.8682 13.084C72.2508 12.132 72.4422 11.0867 72.4422 9.948V9.71ZM67.9342 9.71H73.1982V10.9H67.9342V9.71Z" fill="white"/>
</svg>
