<svg width="current" height="current" viewBox="0 0 40 40" fill="none" xmlns="http://www.w3.org/2000/svg">
<rect width="40" height="40" rx="20" fill="#016DAE"/>
<g clip-path="url(#clip0_6517_19976)">
<path fill-rule="evenodd" clip-rule="evenodd" d="M30.6116 15.9466C28.7658 13.1607 25.7005 11.5 22.5824 11.5C19.4644 11.5 16.3974 13.1607 14.5549 15.9466L14.4609 16.0906H16.7863L16.811 16.0607C18.3931 14.3193 20.4581 13.4012 22.5824 13.4012C24.7067 13.4012 26.7717 14.3193 28.3571 16.0607L28.3835 16.0906H30.7056L30.6116 15.9466Z" fill="#E60013"/>
<path d="M13.5381 25.212L13.4952 25.2594C12.78 26.0336 11.9543 26.4443 11.1039 26.4443C9.32737 26.4443 8.03696 25.0242 8.03696 23.0668C8.03696 21.1112 9.32737 19.6893 11.1039 19.6893C11.9543 19.6893 12.7816 20.1018 13.4952 20.8777L13.5381 20.9251L14.6802 19.4523L14.6505 19.4137C13.6996 18.2164 12.5592 17.6354 11.1583 17.6354C9.75091 17.6354 8.4671 18.1392 7.53926 19.0485C6.53231 20.0316 6 21.4202 6 23.0651C6 24.7082 6.53231 26.1003 7.53926 27.0851C8.46545 27.9979 9.75091 28.5 11.1583 28.5C12.5592 28.5 13.7012 27.9172 14.6505 26.7217L14.6802 26.6848L13.5381 25.212Z" fill="white"/>
<path d="M17.8521 17.804H15.835V28.2999H17.8521V17.804Z" fill="white"/>
<path d="M25.7611 26.0178C25.2238 26.3671 24.7212 26.5427 24.2713 26.5427C23.6187 26.5427 23.3237 26.1758 23.3237 25.3595V19.7894H25.3804V17.8127H23.3237V14.5458L21.3444 15.6745V17.8127H19.6387V19.7894H21.346V25.7141C21.346 27.3274 22.2442 28.4316 23.5841 28.4597C24.4938 28.479 25.0426 28.1911 25.3755 27.9787L25.3952 27.9646L25.8814 25.9423L25.7611 26.0178Z" fill="white"/>
<path d="M29.4515 17.804H27.4326V28.2999H29.4515V17.804Z" fill="white"/>
<path d="M33.8272 16.4996C33.8272 17.0438 33.4382 17.4581 32.9274 17.4581C32.4165 17.4581 32.0275 17.0438 32.0275 16.4996C32.0275 15.9554 32.4181 15.5394 32.9274 15.5394C33.4399 15.5411 33.8272 15.9554 33.8272 16.4996ZM34.0002 16.4996C34.0002 15.8519 33.5371 15.3568 32.9274 15.3568C32.3176 15.3568 31.8545 15.8519 31.8545 16.4996C31.8545 17.1474 32.3192 17.6424 32.9274 17.6424C33.5371 17.6424 34.0002 17.1474 34.0002 16.4996ZM33.4185 16.231C33.4185 15.9712 33.2438 15.8554 33.0361 15.8554H32.5219V17.1018H32.7214V16.6208H32.9471L33.1762 17.1018H33.4102L33.1696 16.5979C33.3196 16.5505 33.4185 16.4259 33.4185 16.231ZM33.2158 16.2363C33.2158 16.3609 33.135 16.4136 33.0279 16.4136H32.7181V16.059H33.0279C33.1367 16.059 33.2158 16.1204 33.2158 16.2363Z" fill="white"/>
</g>
<defs>
<clipPath id="clip0_6517_19976">
<rect width="28" height="17" fill="white" transform="translate(6 11.5)"/>
</clipPath>
</defs>
</svg>
