<svg xmlns="http://www.w3.org/2000/svg" width="current" height="current" viewBox="0 0 60 60" fill="#333333">
  <path fill-rule="evenodd" clip-rule="evenodd" d="M46.7678 16.7678C47.7441 15.7915 47.7441 14.2085 46.7678 13.2322C45.7915 12.2559 44.2085 12.2559 43.2322 13.2322L30 26.4645L16.7678 13.2322C15.7915 12.2559 14.2085 12.2559 13.2322 13.2322C12.2559 14.2085 12.2559 15.7915 13.2322 16.7678L26.4645 30L13.2322 43.2322C12.2559 44.2085 12.2559 45.7915 13.2322 46.7678C14.2085 47.7441 15.7915 47.7441 16.7678 46.7678L30 33.5355L43.2322 46.7678C44.2085 47.7441 45.7915 47.7441 46.7678 46.7678C47.7441 45.7915 47.7441 44.2085 46.7678 43.2322L33.5355 30L46.7678 16.7678Z" />
</svg>