<svg xmlns="http://www.w3.org/2000/svg" width="current" height="current" viewBox="0 0 60 60" fill="#333333">
  <path d="M27.5 45H32.5C33.875 45 35 43.875 35 42.5C35 41.125 33.875 40 32.5 40H27.5C26.125 40 25 41.125 25 42.5C25 43.875 26.125 45 27.5 45ZM7.5 17.5C7.5 18.875 8.625 20 10 20H50C51.375 20 52.5 18.875 52.5 17.5C52.5 16.125 51.375 15 50 15H10C8.625 15 7.5 16.125 7.5 17.5ZM17.5 32.5H42.5C43.875 32.5 45 31.375 45 30C45 28.625 43.875 27.5 42.5 27.5H17.5C16.125 27.5 15 28.625 15 30C15 31.375 16.125 32.5 17.5 32.5Z" fill="#333333"/>
</svg>