<svg width="current" height="current" viewBox="0 0 60 60" fill="none" xmlns="http://www.w3.org/2000/svg">
<rect width="40" height="40" rx="20" fill="#009476"/>
<g clip-path="url(#clip0_6517_20064)">
<path d="M17.6191 9.4664C17.6191 10.8024 18.71 11.9328 19.9993 11.9328C21.2886 11.9328 22.3795 10.8024 22.3795 9.4664C22.3795 9.26087 22.3795 9.05534 22.2803 8.8498C21.9828 8.43874 21.7844 8.2332 21.7844 7.71937C21.8836 7 20.991 7 20.4952 7C19.9993 7 19.4043 7.10277 18.9084 7.3083C18.6109 7.51383 18.2142 7.82213 18.0158 8.13043C17.8175 8.5415 17.6191 8.95257 17.6191 9.4664Z" fill="white"/>
<path d="M31.9004 12.5495C31.8013 12.2412 31.4046 12.2412 30.8095 12.3439C29.8178 12.5495 27.1401 13.1661 22.6773 13.2688C20.6938 13.3716 18.512 13.3716 16.231 13.1661C14.4459 12.9605 10.9748 12.4467 10.2806 12.3439C9.88392 12.3439 8.89218 12.2412 8.49549 12.6522C7.80127 13.1661 7.99962 13.9882 8.29714 14.7076C8.29714 14.7076 9.09053 16.0435 11.074 16.4546C13.8509 16.9684 18.2145 16.7629 19.6029 16.6601C22.7765 16.3518 25.2558 15.838 27.1401 15.3242C27.1401 15.3242 29.7186 14.6048 31.0079 13.7827C31.5038 13.5771 32.198 12.9605 31.9004 12.5495Z" fill="white"/>
<path d="M22.4793 18.51C20.8925 17.5851 19.0082 17.5851 17.4214 18.51C14.9421 19.9487 14.0495 23.2372 15.5371 25.9092C16.7272 27.8617 18.4132 27.4507 18.8098 26.9368C19.5041 26.2175 19.2065 25.6009 18.909 25.087C18.314 24.3677 18.2148 23.7511 18.2148 23.4428C18.2148 22.4151 19.0082 21.4902 20.0991 21.4902C20.595 21.4902 21.19 21.6957 21.4875 22.2096C21.9834 22.8262 21.9834 23.6483 21.9834 24.3677C21.7851 28.4783 20.1983 31.9724 20.0991 32.1779C19.9999 32.2807 19.9008 32.7945 20.1983 33.0001C20.4958 33.1028 20.7933 33.0001 21.0908 32.6918C21.7851 32.0752 23.2727 30.2254 23.9669 28.3756C24.3636 27.3479 25.3553 24.7787 25.0578 22.2096C24.7603 20.257 23.5702 19.0238 22.4793 18.51Z" fill="white"/>
</g>
<defs>
<clipPath id="clip0_6517_20064">
<rect width="24" height="26" fill="white" transform="translate(8 7)"/>
</clipPath>
</defs>
</svg>
