<svg width="current" height="current" viewBox="0 0 60 60" fill="#333333" xmlns="http://www.w3.org/2000/svg">
<path fill-rule="evenodd" clip-rule="evenodd" d="M30 7.5C17.5736 7.5 7.5 17.5736 7.5 30C7.5 42.4264 17.5736 52.5 30 52.5C42.4264 52.5 52.5 42.4264 52.5 30C52.5 17.5736 42.4264 7.5 30 7.5ZM2.5 30C2.5 14.8122 14.8122 2.5 30 2.5C45.1878 2.5 57.5 14.8122 57.5 30C57.5 45.1878 45.1878 57.5 30 57.5C14.8122 57.5 2.5 45.1878 2.5 30ZM30.6453 20.0608C29.4815 19.8612 28.2846 20.0799 27.2666 20.6782C26.2486 21.2765 25.4752 22.2157 25.0833 23.3296C24.6252 24.6321 23.1979 25.3165 21.8954 24.8583C20.5929 24.4002 19.9085 22.9729 20.3667 21.6704C21.1503 19.4426 22.6972 17.5641 24.7332 16.3675C26.7692 15.1709 29.163 14.7335 31.4906 15.1328C33.8182 15.532 35.9294 16.7421 37.4503 18.5488C38.9708 20.3551 39.8032 22.6412 39.8 25.0023C39.7989 28.8282 36.9623 31.3547 34.9368 32.7051C33.8477 33.4312 32.7764 33.965 31.9872 34.3158C31.5891 34.4927 31.2538 34.627 31.0123 34.719C30.8913 34.7651 30.7932 34.8008 30.7218 34.8262L30.6349 34.8566L30.6073 34.8661L30.5975 34.8694L30.5937 34.8707C30.5937 34.8707 30.5906 34.8717 29.8 32.5L30.5906 34.8717C29.2807 35.3083 27.8649 34.6004 27.4283 33.2906C26.992 31.9816 27.6986 30.5668 29.0068 30.1292L29.0467 30.1152C29.0852 30.1015 29.1482 30.0786 29.2323 30.0466C29.4009 29.9824 29.6515 29.8823 29.9565 29.7467C30.5736 29.4725 31.3773 29.0688 32.1632 28.5449C33.8872 27.3955 34.8 26.1728 34.8 25L34.8 24.9963C34.8018 23.8155 34.3856 22.6722 33.6251 21.7688C32.8647 20.8655 31.8091 20.2604 30.6453 20.0608ZM30 40C28.6193 40 27.5 41.1193 27.5 42.5C27.5 43.8807 28.6193 45 30 45H30.025C31.4057 45 32.525 43.8807 32.525 42.5C32.525 41.1193 31.4057 40 30.025 40H30Z" fill="#333333"/>
</svg>