<svg xmlns="http://www.w3.org/2000/svg" width="current" height="current" viewBox="0 0 25 24" fill="none" stroke="#767676" stroke-width="2">
  <path d="M4.7091 20.4V11.3767C4.7091 11.1558 4.53002 10.9767 4.3091 10.9767H2.75843C2.39297 10.9767 2.2189 10.527 2.48913 10.281L11.7567 1.84279C11.9082 1.70482 12.1395 1.70369 12.2924 1.84019L21.7428 10.2783C22.0169 10.523 21.8438 10.9767 21.4764 10.9767H19.7377C19.5168 10.9767 19.3377 11.1558 19.3377 11.3767V20.4C19.3377 20.6209 19.1586 20.8 18.9377 20.8H14.8615C14.6406 20.8 14.4615 20.6209 14.4615 20.4V13.7258C14.4615 13.5048 14.2824 13.3258 14.0615 13.3258H9.98529C9.76438 13.3258 9.58529 13.5048 9.58529 13.7258V20.4C9.58529 20.6209 9.40621 20.8 9.18529 20.8H5.1091C4.88819 20.8 4.7091 20.6209 4.7091 20.4Z" />
</svg>