<svg width="current" height="current" viewBox="0 0 40 40" fill="none" xmlns="http://www.w3.org/2000/svg">
<rect width="40" height="40" rx="20" fill="#004C9D"/>
<path d="M13.6375 8.29745C12.9672 8.63261 12.4699 9.20562 12.232 9.91917L7.75607 23.3794C7.51822 24.0876 7.57228 24.8498 7.91284 25.5201C8.24799 26.185 8.821 26.6823 9.52915 26.9202L24.2219 31.8556C24.9355 32.0934 25.6923 32.034 26.3626 31.7042C27.0329 31.3691 27.5302 30.7961 27.7627 30.0825L32.244 16.6223C32.7359 15.1573 31.9359 13.568 30.4709 13.0761L15.7782 8.14609C15.0646 7.90824 14.3078 7.9623 13.6375 8.29745Z" fill="white"/>
<path d="M20.8222 21.2278C20.0221 22.1197 19.0275 22.8387 17.8761 23.282L17.2166 23.5414V17.3032L17.8707 17.5573C19.0275 18.0006 20.0221 18.7141 20.8276 19.6007C21.4006 18.6817 21.752 17.6168 21.8277 16.4599C22.0115 13.4652 20.1357 10.7245 17.5625 9.76765L15.4435 9.0595C14.4867 8.74056 13.465 9.27032 13.1515 10.2217L8.6431 23.6982C8.32416 24.655 8.85933 25.6983 9.82155 26.0118L20.0167 29.4175C21.0546 28.3093 21.7304 26.8443 21.8277 25.2118C21.925 23.7577 21.5412 22.3792 20.8222 21.2278ZM14.93 16.9302V23.9252H13.9191V16.9302H14.93Z" fill="#0099DA"/>
<path d="M30.1473 13.9735L20.79 10.849C22.0442 12.2221 22.8118 14.0546 22.8172 16.0547C22.8172 17.6386 22.3253 19.1522 21.4658 20.4171C22.3253 21.6821 22.8226 23.1903 22.828 24.7741C22.828 26.6661 22.1469 28.4068 21.0171 29.7528L24.5308 30.9259C25.493 31.2448 26.5039 30.715 26.8228 29.7582L31.3204 16.2872C31.6447 15.3303 31.1042 14.2924 30.1473 13.9735ZM27.6661 23.9038L26.4012 23.9092L23.801 20.4117L26.4444 16.9142L27.7202 16.9088L25.0714 20.4171L27.6661 23.9038Z" fill="#0056A2"/>
<path d="M20.2333 20.417C19.6657 19.7521 18.9792 19.1899 18.1846 18.7791V22.0657C18.9738 21.6495 19.6657 21.0873 20.2333 20.417Z" fill="#F15A22"/>
</svg>
