<svg width="current" height="current" viewBox="0 0 40 40" fill="none" xmlns="http://www.w3.org/2000/svg">
<rect width="40" height="40" rx="20" fill="#7C7366"/>
<path d="M33.0712 20.2608L32.8362 20.1057C32.0393 19.2806 30.9313 18.9209 29.4486 19.0133C28.2135 19.0925 27.2356 19.6008 26.4863 20.0727C26.4863 20.0595 26.4863 20.0496 26.4863 20.0364C26.4863 19.6338 26.5308 19.1981 26.5721 18.7756C26.6133 18.3466 26.661 17.9076 26.661 17.4951C26.661 17.0726 26.6165 16.6699 26.4736 16.3267C26.4387 16.2376 26.3593 16.1881 26.2609 16.1881C25.8609 16.198 25.083 16.4818 24.8925 16.6534L24.7909 16.8878C24.7846 17.3465 24.6861 18.6304 24.5877 18.7855C24.5909 18.7789 24.5369 18.9407 24.5369 18.9407C24.3686 20.7724 24.3655 22.3797 24.521 23.7626C24.5401 23.9013 24.7941 24.1092 24.9941 24.1851C25.21 24.2676 25.8894 24.0795 26.28 23.9277C26.2736 23.9277 26.426 23.9046 26.426 23.9046C26.5498 23.8914 26.6229 23.7824 26.6165 23.6372C26.6133 23.6339 26.626 23.2412 26.626 23.2412C26.9086 22.0497 28.0516 20.6239 29.4009 20.4094C30.1661 20.284 30.7694 20.4886 31.2456 21.0266C31.3091 21.1223 31.4488 21.9837 30.9472 22.9672C30.5725 23.6966 29.8232 24.3138 28.8358 24.6967C27.9024 25.0663 26.8737 25.2148 25.6069 25.1686C25.5529 25.1323 24.4194 24.3336 24.4194 24.3336C23.413 23.5976 22.1621 22.6834 21.0286 22.2378C20.8286 22.1586 20.473 21.8484 20.2571 21.6668L20.1396 21.5678C19.4856 21.0233 18.241 20.1618 17.244 19.4687C17.244 19.4687 16.7932 19.1552 16.7075 19.0925C16.7075 19.0529 16.7075 18.9737 16.7075 18.9737C16.7361 18.9407 17.3647 18.5512 17.3647 18.5512C18.2442 18.0165 18.6506 17.7558 18.7363 17.6205C18.7172 17.6436 18.8537 17.5479 18.8537 17.5479C18.8633 17.5446 21.0318 16.2673 21.0318 16.2673C23.1241 15.0725 25.4926 13.716 26.7372 12.3793C26.7403 12.3793 26.7975 12.1747 26.7975 12.1747L26.8261 11.9932C26.9086 11.7061 26.9118 11.4882 26.8451 11.2341C26.8261 11.1615 26.7626 11.0757 26.6768 11.0625C25.7053 10.9601 24.4512 11.5674 23.3114 12.6797C23.0542 12.9305 22.8383 13.0526 22.6097 13.1814L22.4351 13.2837C21.1778 14.0263 18.3458 15.8547 16.8599 16.8416C16.9551 15.1748 17.2504 12.8183 17.6123 10.8512L17.5711 10.6169C17.5679 10.607 17.4187 10.3199 17.4187 10.3199L17.3044 10.1086L17.2726 10.0987C16.9774 9.9436 16.7361 10.0063 16.5583 10.0525L16.2598 10.1647L15.8629 10.3133C15.7836 10.3298 15.7296 10.3793 15.701 10.4585C14.993 12.2374 14.4025 15.1649 14.2628 17.505C12.8467 16.5709 11.5387 15.8976 10.8973 15.5709L10.8783 15.561L10.8021 15.5445C10.5703 15.5148 10.2909 15.3366 10.021 15.1649C9.99245 15.1484 9.48128 14.8019 9.48128 14.8019L8.65897 14.2573C8.66532 14.2639 8.44307 14.2045 8.44307 14.2045C8.08748 14.2705 7.41121 14.7425 7.20801 15.0692C7.18262 15.1121 7.16992 15.1583 7.16992 15.2045C7.16992 15.2739 7.18897 15.3399 7.20801 15.4092L7.24294 15.5841L7.28104 15.6897C7.67473 16.1089 8.67167 16.8086 9.64638 17.3531L10.7767 17.9769L12.507 18.9605C12.507 18.9704 12.8023 19.2047 12.8023 19.2047L13.0055 19.3268C13.0055 19.3268 13.0277 19.34 13.0436 19.3499C12.5832 19.6701 9.89403 21.5348 9.89403 21.5348L8.24305 22.6735C8.08748 22.7857 7.43344 23.0893 7.28739 23.1488C6.92862 23.3006 6.65557 23.5316 6.54445 23.7857L6.5 23.8848L6.54445 23.9508L6.67145 24.0498C6.6651 24.0498 6.83972 24.1653 6.83972 24.1653L7.02387 24.294C7.02704 24.294 7.19532 24.3237 7.19532 24.3237C7.48741 24.3336 7.91603 24.162 8.72247 23.7956C9.46223 23.4557 11.472 22.1949 12.3324 21.6569L12.6975 21.4292C12.8499 21.4424 13.015 21.3104 13.1642 21.1916C13.3357 21.0497 13.7103 20.8087 13.9389 20.7031C13.9453 20.6998 14.0754 20.6239 14.1993 20.5546C14.1993 20.5942 14.1961 20.6569 14.1961 20.6569C14.2342 23.3897 14.3834 25.3766 14.6723 26.908L14.6755 26.9344L14.7041 26.9971C14.8438 27.2116 15.0057 27.8618 15.1486 28.4328L15.4756 29.5748C15.4819 29.588 15.5677 29.6804 15.5677 29.6804C15.755 29.8124 16.3233 30.0401 16.7043 29.9939L16.7996 29.9807L16.8599 29.8421C16.8916 29.6705 16.9043 29.5021 16.9043 29.3173C16.9043 29.1094 16.8885 28.8784 16.8726 28.5978L16.8472 28.1853C16.7265 26.2776 16.6059 23.5217 16.6059 21.6899V21.5447C16.9202 21.7461 18.2823 22.6405 18.2823 22.6405C20.6031 24.2049 24.1115 26.5713 26.2292 27.1951C26.3403 27.2281 26.4546 27.2017 26.5371 27.1225C26.5403 27.1192 26.8642 26.9047 26.8642 26.9047L26.9245 26.8783C27.0451 26.8189 27.1277 26.6043 27.1404 26.3733C28.9279 26.2809 31.417 25.5647 32.7505 23.822C33.2649 23.1455 33.4998 22.3203 33.4998 21.614C33.5062 21.0365 33.3506 20.5381 33.0712 20.2608Z" fill="#F8B500"/>
</svg>
