<svg width="current" height="current" viewBox="0 0 40 40" fill="none" xmlns="http://www.w3.org/2000/svg">
<rect width="40" height="40" rx="20" fill="#0114A7"/>
<g clip-path="url(#clip0_6517_20115)">
<path d="M14.2794 18.2078C13.7054 18.2078 13.1739 18.4139 12.7836 18.7884L12.6493 18.9171V16.0012H11.1201V20.985C11.1201 22.8446 12.217 24 13.9825 24C15.7481 24 16.9621 22.7845 16.9621 21.1099C16.9621 19.4353 15.8343 18.2083 14.2799 18.2083L14.2794 18.2078ZM14.0349 22.5817C13.2319 22.5817 12.5784 21.9195 12.5784 21.1062C12.5784 20.2928 13.2317 19.6298 14.0349 19.6298C14.8381 19.6298 15.4914 20.292 15.4914 21.1062C15.4914 21.9203 14.8379 22.5817 14.0349 22.5817Z" fill="white"/>
<path d="M8.57337 16L5.54693 19.5588V16H4V23.817H5.54693V20.2895L8.63487 23.817H10.6234L7.20724 19.9082L10.5311 16H8.57337Z" fill="white"/>
<path d="M35.9999 18.3909H34.2964L32.3395 20.7347V16H30.8096V23.8182H32.3395V21.4744L34.2964 23.8182H35.9999L33.7337 21.1042L35.9999 18.3909Z" fill="white"/>
<path d="M27.8126 18.2079C26.8686 18.2079 26.2859 18.6555 26.0075 18.9695V18.3934H24.5312V23.8185H26.0609V20.8639C26.0609 20.1253 26.5685 19.6099 27.2028 19.6099C27.837 19.6099 28.3451 20.1256 28.3451 20.8639V23.8183H29.8743V20.399C29.8745 19.1292 28.9661 18.2079 27.8126 18.2079Z" fill="white"/>
<path d="M20.6271 18.2079C18.9194 18.2079 17.6797 19.4284 17.6797 21.1092C17.6797 22.7901 18.822 24 20.3956 24C21.514 24 22.112 23.1791 22.1175 23.1711L22.2044 23.0494V23.8185H23.5955V21.1092C23.5952 19.4281 22.3469 18.2079 20.6271 18.2079ZM20.6733 22.5818C19.8703 22.5818 19.2167 21.9196 19.2167 21.1062C19.2167 20.2928 19.87 19.6299 20.6733 19.6299C21.4763 19.6299 22.1298 20.2921 22.1298 21.1062C22.1298 21.9204 21.4763 22.5818 20.6733 22.5818Z" fill="white"/>
</g>
<defs>
<clipPath id="clip0_6517_20115">
<rect width="32" height="8" fill="white" transform="translate(4 16)"/>
</clipPath>
</defs>
</svg>
