<svg xmlns="http://www.w3.org/2000/svg" width="current" height="current" viewBox="0 0 60 60" fill="#333333">
  <path d="M30 5C20.325 5 12.5 12.825 12.5 22.5C12.5 35.625 30 55 30 55C30 55 47.5 35.625 47.5 22.5C47.5 12.825 39.675 5 30 5ZM17.5 22.5C17.5 15.6 23.1 10 30 10C36.9 10 42.5 15.6 42.5 22.5C42.5 29.7 35.3 40.475 30 47.2C24.8 40.525 17.5 29.625 17.5 22.5Z" />
  <path d="M30 28.75C33.4518 28.75 36.25 25.9518 36.25 22.5C36.25 19.0482 33.4518 16.25 30 16.25C26.5482 16.25 23.75 19.0482 23.75 22.5C23.75 25.9518 26.5482 28.75 30 28.75Z" />
</svg>