<svg width="102" height="16" viewBox="0 0 102 16" fill="none" xmlns="http://www.w3.org/2000/svg">
<path d="M0.74 5.68C0.646667 5.53333 0.56 5.33333 0.48 5.08C0.4 4.82667 0.36 4.56 0.36 4.28C0.36 3.76 0.473333 3.38667 0.7 3.16C0.94 2.93333 1.24667 2.82 1.62 2.82H10.34C10.4333 2.96667 10.52 3.16667 10.6 3.42C10.68 3.67333 10.72 3.94 10.72 4.22C10.72 4.74 10.6 5.11333 10.36 5.34C10.1333 5.56667 9.83333 5.68 9.46 5.68H7.24V14.92C7.09333 14.96 6.86 15 6.54 15.04C6.23333 15.08 5.92667 15.1 5.62 15.1C5.31333 15.1 5.04 15.0733 4.8 15.02C4.57333 14.98 4.38 14.9 4.22 14.78C4.06 14.66 3.94 14.4933 3.86 14.28C3.78 14.0667 3.74 13.7867 3.74 13.44V5.68H0.74ZM11.9756 2.58C11.9756 2.07333 12.1423 1.64667 12.4756 1.3C12.8223 0.953333 13.2756 0.779999 13.8356 0.779999C14.3956 0.779999 14.8423 0.953333 15.1756 1.3C15.5223 1.64667 15.6956 2.07333 15.6956 2.58C15.6956 3.08667 15.5223 3.51333 15.1756 3.86C14.8423 4.20667 14.3956 4.38 13.8356 4.38C13.2756 4.38 12.8223 4.20667 12.4756 3.86C12.1423 3.51333 11.9756 3.08667 11.9756 2.58ZM15.5356 14.98C15.389 15.0067 15.169 15.04 14.8756 15.08C14.5956 15.1333 14.309 15.16 14.0156 15.16C13.7223 15.16 13.4556 15.14 13.2156 15.1C12.989 15.06 12.7956 14.98 12.6356 14.86C12.4756 14.74 12.349 14.58 12.2556 14.38C12.1756 14.1667 12.1356 13.8933 12.1356 13.56V5.42C12.2823 5.39333 12.4956 5.36 12.7756 5.32C13.069 5.26667 13.3623 5.24 13.6556 5.24C13.949 5.24 14.209 5.26 14.4356 5.3C14.6756 5.34 14.8756 5.42 15.0356 5.54C15.1956 5.66 15.3156 5.82667 15.3956 6.04C15.489 6.24 15.5356 6.50667 15.5356 6.84V14.98ZM23.1802 7.66C22.8468 7.66 22.5268 7.71333 22.2202 7.82C21.9268 7.92667 21.6668 8.08667 21.4402 8.3C21.2268 8.5 21.0535 8.75333 20.9202 9.06C20.7868 9.36667 20.7202 9.72667 20.7202 10.14C20.7202 10.9667 20.9535 11.5867 21.4202 12C21.9002 12.4133 22.4802 12.62 23.1602 12.62C23.5602 12.62 23.9068 12.5733 24.2002 12.48C24.4935 12.3867 24.7535 12.2867 24.9802 12.18C25.2468 12.3667 25.4468 12.5733 25.5802 12.8C25.7135 13.0133 25.7802 13.2733 25.7802 13.58C25.7802 14.1267 25.5202 14.5533 25.0002 14.86C24.4802 15.1533 23.7602 15.3 22.8402 15.3C22.0002 15.3 21.2402 15.18 20.5602 14.94C19.8802 14.6867 19.2935 14.34 18.8002 13.9C18.3202 13.4467 17.9468 12.9067 17.6802 12.28C17.4135 11.6533 17.2802 10.96 17.2802 10.2C17.2802 9.32 17.4202 8.55333 17.7002 7.9C17.9935 7.23333 18.3868 6.68667 18.8802 6.26C19.3735 5.83333 19.9402 5.51333 20.5802 5.3C21.2335 5.08667 21.9202 4.98 22.6402 4.98C23.6002 4.98 24.3402 5.15333 24.8602 5.5C25.3802 5.84667 25.6402 6.29333 25.6402 6.84C25.6402 7.09333 25.5802 7.33333 25.4602 7.56C25.3402 7.77333 25.2002 7.96 25.0402 8.12C24.8135 8.01333 24.5402 7.91333 24.2202 7.82C23.9002 7.71333 23.5535 7.66 23.1802 7.66ZM36.9853 13.24C36.9186 13.8667 36.732 14.3467 36.4253 14.68C36.132 15.0133 35.6986 15.18 35.1253 15.18C34.6986 15.18 34.3186 15.08 33.9853 14.88C33.652 14.6667 33.292 14.3133 32.9053 13.82L30.9253 11.34V14.98C30.7786 15.0067 30.5586 15.04 30.2653 15.08C29.9853 15.1333 29.6986 15.16 29.4053 15.16C29.112 15.16 28.8453 15.14 28.6053 15.1C28.3786 15.06 28.1853 14.98 28.0253 14.86C27.8653 14.74 27.7386 14.58 27.6453 14.38C27.5653 14.1667 27.5253 13.8933 27.5253 13.56V1.98C27.672 1.94 27.8853 1.9 28.1653 1.86C28.4586 1.80667 28.752 1.78 29.0453 1.78C29.3386 1.78 29.5986 1.8 29.8253 1.84C30.0653 1.88 30.2653 1.96 30.4253 2.08C30.5853 2.2 30.7053 2.36667 30.7853 2.58C30.8786 2.78 30.9253 3.04667 30.9253 3.38V8.66L34.3653 5.14C35.0586 5.14 35.612 5.29333 36.0253 5.6C36.452 5.90667 36.6653 6.29333 36.6653 6.76C36.6653 6.96 36.632 7.14667 36.5653 7.32C36.4986 7.48 36.392 7.64667 36.2453 7.82C36.112 7.99333 35.932 8.18 35.7053 8.38C35.492 8.56667 35.2386 8.78667 34.9453 9.04L33.7853 10.04L36.9853 13.24ZM43.2698 15.32C42.4832 15.32 41.7498 15.2133 41.0698 15C40.4032 14.7733 39.8165 14.44 39.3098 14C38.8165 13.56 38.4232 13.0067 38.1298 12.34C37.8498 11.6733 37.7098 10.8933 37.7098 10C37.7098 9.12 37.8498 8.36667 38.1298 7.74C38.4232 7.1 38.8032 6.58 39.2698 6.18C39.7365 5.76667 40.2698 5.46667 40.8698 5.28C41.4698 5.08 42.0832 4.98 42.7098 4.98C43.4165 4.98 44.0565 5.08667 44.6298 5.3C45.2165 5.51333 45.7165 5.80667 46.1298 6.18C46.5565 6.55333 46.8832 7 47.1098 7.52C47.3498 8.04 47.4698 8.60667 47.4698 9.22C47.4698 9.67333 47.3432 10.02 47.0898 10.26C46.8365 10.5 46.4832 10.6533 46.0298 10.72L41.0898 11.46C41.2365 11.9 41.5365 12.2333 41.9898 12.46C42.4432 12.6733 42.9632 12.78 43.5498 12.78C44.0965 12.78 44.6098 12.7133 45.0898 12.58C45.5832 12.4333 45.9832 12.2667 46.2898 12.08C46.5032 12.2133 46.6832 12.4 46.8298 12.64C46.9765 12.88 47.0498 13.1333 47.0498 13.4C47.0498 14 46.7698 14.4467 46.2098 14.74C45.7832 14.9667 45.3032 15.12 44.7698 15.2C44.2365 15.28 43.7365 15.32 43.2698 15.32ZM42.7098 7.46C42.3898 7.46 42.1098 7.51333 41.8698 7.62C41.6432 7.72667 41.4565 7.86667 41.3098 8.04C41.1632 8.2 41.0498 8.38667 40.9698 8.6C40.9032 8.8 40.8632 9.00667 40.8498 9.22L44.2698 8.66C44.2298 8.39333 44.0832 8.12667 43.8298 7.86C43.5765 7.59333 43.2032 7.46 42.7098 7.46ZM52.5064 11.66C52.5064 12.0067 52.6131 12.2533 52.8264 12.4C53.0531 12.5467 53.3664 12.62 53.7664 12.62C53.9664 12.62 54.1731 12.6067 54.3864 12.58C54.5997 12.54 54.7864 12.4933 54.9464 12.44C55.0664 12.5867 55.1664 12.7533 55.2464 12.94C55.3397 13.1133 55.3864 13.3267 55.3864 13.58C55.3864 14.0867 55.1931 14.5 54.8064 14.82C54.4331 15.14 53.7664 15.3 52.8064 15.3C51.6331 15.3 50.7264 15.0333 50.0864 14.5C49.4597 13.9667 49.1464 13.1 49.1464 11.9V3.34C49.2931 3.3 49.4997 3.26 49.7664 3.22C50.0464 3.16667 50.3397 3.14 50.6464 3.14C51.2331 3.14 51.6864 3.24667 52.0064 3.46C52.3397 3.66 52.5064 4.09333 52.5064 4.76V6.04H55.1264C55.2064 6.18667 55.2797 6.37333 55.3464 6.6C55.4264 6.81333 55.4664 7.05333 55.4664 7.32C55.4664 7.78667 55.3597 8.12667 55.1464 8.34C54.9464 8.54 54.6731 8.64 54.3264 8.64H52.5064V11.66ZM65.7542 12.02C65.5809 12.1667 65.3542 12.2867 65.0742 12.38C64.8076 12.46 64.4942 12.5 64.1342 12.5C63.6542 12.5 63.2542 12.44 62.9342 12.32C62.6276 12.2 62.4276 11.9933 62.3342 11.7C61.9609 10.5267 61.6542 9.58 61.4142 8.86C61.1742 8.12667 60.9876 7.48667 60.8542 6.94H60.7542C60.7142 7.72667 60.6809 8.44667 60.6542 9.1C60.6409 9.74 60.6276 10.3667 60.6142 10.98C60.6142 11.5933 60.6009 12.2133 60.5742 12.84C60.5609 13.4667 60.5342 14.16 60.4942 14.92C60.3209 14.9867 60.0942 15.04 59.8142 15.08C59.5342 15.1333 59.2542 15.16 58.9742 15.16C58.3876 15.16 57.9276 15.0667 57.5942 14.88C57.2742 14.6933 57.1142 14.3533 57.1142 13.86L57.6942 3.66C57.8009 3.48667 58.0342 3.3 58.3942 3.1C58.7542 2.9 59.2609 2.8 59.9142 2.8C60.6209 2.8 61.1742 2.91333 61.5742 3.14C61.9742 3.35333 62.2676 3.70667 62.4542 4.2C62.5742 4.52 62.7009 4.88667 62.8342 5.3C62.9809 5.71333 63.1209 6.14 63.2542 6.58C63.4009 7.02 63.5409 7.46 63.6742 7.9C63.8076 8.32667 63.9276 8.71333 64.0342 9.06H64.1342C64.4542 7.94 64.7742 6.86 65.0942 5.82C65.4142 4.76667 65.7076 3.88667 65.9742 3.18C66.1742 3.07333 66.4276 2.98667 66.7342 2.92C67.0542 2.84 67.4076 2.8 67.7942 2.8C68.4476 2.8 68.9809 2.9 69.3942 3.1C69.8076 3.28667 70.0476 3.56 70.1142 3.92C70.1676 4.18667 70.2209 4.6 70.2742 5.16C70.3409 5.70667 70.4076 6.32667 70.4742 7.02C70.5409 7.71333 70.6076 8.44667 70.6742 9.22C70.7409 9.99333 70.8009 10.74 70.8542 11.46C70.9209 12.1667 70.9742 12.82 71.0142 13.42C71.0542 14.0067 71.0809 14.46 71.0942 14.78C70.8676 14.9133 70.6276 15.0067 70.3742 15.06C70.1342 15.1267 69.8209 15.16 69.4342 15.16C68.9276 15.16 68.5009 15.0733 68.1542 14.9C67.8076 14.7267 67.6209 14.3867 67.5942 13.88C67.5142 12.4267 67.4609 11.12 67.4342 9.96C67.4209 8.8 67.3942 7.82667 67.3542 7.04H67.2542C67.1209 7.56 66.9276 8.21333 66.6742 9C66.4209 9.78667 66.1142 10.7933 65.7542 12.02ZM77.2117 12.84C77.4384 12.84 77.6851 12.82 77.9517 12.78C78.2317 12.7267 78.4384 12.66 78.5717 12.58V10.98L77.1317 11.1C76.7584 11.1267 76.4517 11.2067 76.2117 11.34C75.9717 11.4733 75.8517 11.6733 75.8517 11.94C75.8517 12.2067 75.9517 12.4267 76.1517 12.6C76.3651 12.76 76.7184 12.84 77.2117 12.84ZM77.0517 4.98C77.7717 4.98 78.4251 5.05333 79.0117 5.2C79.6117 5.34667 80.1184 5.57333 80.5317 5.88C80.9584 6.17333 81.2851 6.55333 81.5117 7.02C81.7384 7.47333 81.8517 8.01333 81.8517 8.64V13.12C81.8517 13.4667 81.7517 13.7533 81.5517 13.98C81.3651 14.1933 81.1384 14.38 80.8717 14.54C80.0051 15.06 78.7851 15.32 77.2117 15.32C76.5051 15.32 75.8651 15.2533 75.2917 15.12C74.7317 14.9867 74.2451 14.7867 73.8317 14.52C73.4317 14.2533 73.1184 13.9133 72.8917 13.5C72.6784 13.0867 72.5717 12.6067 72.5717 12.06C72.5717 11.14 72.8451 10.4333 73.3917 9.94C73.9384 9.44667 74.7851 9.14 75.9317 9.02L78.5517 8.74V8.6C78.5517 8.21333 78.3784 7.94 78.0317 7.78C77.6984 7.60667 77.2117 7.52 76.5717 7.52C76.0651 7.52 75.5717 7.57333 75.0917 7.68C74.6117 7.78667 74.1784 7.92 73.7917 8.08C73.6184 7.96 73.4717 7.78 73.3517 7.54C73.2317 7.28667 73.1717 7.02667 73.1717 6.76C73.1717 6.41333 73.2517 6.14 73.4117 5.94C73.5851 5.72667 73.8451 5.54667 74.1917 5.4C74.5784 5.25333 75.0317 5.14667 75.5517 5.08C76.0851 5.01333 76.5851 4.98 77.0517 4.98ZM87.3306 11.66C87.3306 12.0067 87.4373 12.2533 87.6506 12.4C87.8773 12.5467 88.1906 12.62 88.5906 12.62C88.7906 12.62 88.9973 12.6067 89.2106 12.58C89.424 12.54 89.6106 12.4933 89.7706 12.44C89.8906 12.5867 89.9906 12.7533 90.0706 12.94C90.164 13.1133 90.2106 13.3267 90.2106 13.58C90.2106 14.0867 90.0173 14.5 89.6306 14.82C89.2573 15.14 88.5906 15.3 87.6306 15.3C86.4573 15.3 85.5506 15.0333 84.9106 14.5C84.284 13.9667 83.9706 13.1 83.9706 11.9V3.34C84.1173 3.3 84.324 3.26 84.5906 3.22C84.8706 3.16667 85.164 3.14 85.4706 3.14C86.0573 3.14 86.5106 3.24667 86.8306 3.46C87.164 3.66 87.3306 4.09333 87.3306 4.76V6.04H89.9506C90.0306 6.18667 90.104 6.37333 90.1706 6.6C90.2506 6.81333 90.2906 7.05333 90.2906 7.32C90.2906 7.78667 90.184 8.12667 89.9706 8.34C89.7706 8.54 89.4973 8.64 89.1506 8.64H87.3306V11.66ZM96.9613 15.32C96.1746 15.32 95.4413 15.2133 94.7613 15C94.0946 14.7733 93.5079 14.44 93.0013 14C92.5079 13.56 92.1146 13.0067 91.8213 12.34C91.5413 11.6733 91.4013 10.8933 91.4013 10C91.4013 9.12 91.5413 8.36667 91.8213 7.74C92.1146 7.1 92.4946 6.58 92.9613 6.18C93.4279 5.76667 93.9613 5.46667 94.5613 5.28C95.1613 5.08 95.7746 4.98 96.4013 4.98C97.1079 4.98 97.7479 5.08667 98.3213 5.3C98.9079 5.51333 99.4079 5.80667 99.8213 6.18C100.248 6.55333 100.575 7 100.801 7.52C101.041 8.04 101.161 8.60667 101.161 9.22C101.161 9.67333 101.035 10.02 100.781 10.26C100.528 10.5 100.175 10.6533 99.7213 10.72L94.7813 11.46C94.9279 11.9 95.2279 12.2333 95.6813 12.46C96.1346 12.6733 96.6546 12.78 97.2413 12.78C97.7879 12.78 98.3013 12.7133 98.7813 12.58C99.2746 12.4333 99.6746 12.2667 99.9813 12.08C100.195 12.2133 100.375 12.4 100.521 12.64C100.668 12.88 100.741 13.1333 100.741 13.4C100.741 14 100.461 14.4467 99.9013 14.74C99.4746 14.9667 98.9946 15.12 98.4613 15.2C97.9279 15.28 97.4279 15.32 96.9613 15.32ZM96.4013 7.46C96.0813 7.46 95.8013 7.51333 95.5613 7.62C95.3346 7.72667 95.1479 7.86667 95.0013 8.04C94.8546 8.2 94.7413 8.38667 94.6613 8.6C94.5946 8.8 94.5546 9.00667 94.5413 9.22L97.9613 8.66C97.9213 8.39333 97.7746 8.12667 97.5213 7.86C97.2679 7.59333 96.8946 7.46 96.4013 7.46Z" fill="#FF6A6A"/>
</svg>
