<svg xmlns="http://www.w3.org/2000/svg" width="current" height="current" viewBox="0 0 25 24" fill="none"  stroke="#767676" stroke-width="2">
  <path d="M20.475 20.4H5.275C5.05409 20.4 4.875 20.2209 4.875 20V18.1554C4.875 18.0554 4.91167 17.959 4.98154 17.8875C6.05321 16.7905 8.93116 14.8 12.7623 14.8C16.5911 14.8 19.6079 16.7881 20.7584 17.8854C20.8345 17.958 20.875 18.0589 20.875 18.164V20C20.875 20.2209 20.6959 20.4 20.475 20.4Z"/>
  <path d="M16.675 7.80001C16.675 9.74855 15.0142 11.4 12.875 11.4C10.7357 11.4 9.07495 9.74855 9.07495 7.80001C9.07495 5.85147 10.7357 4.20001 12.875 4.20001C15.0142 4.20001 16.675 5.85147 16.675 7.80001Z" stroke="#767676" stroke-width="2"/>
</svg>