<svg width="current" height="current" viewBox="0 0 48 48" fill="none" xmlns="http://www.w3.org/2000/svg">
<rect x="0.1875" y="0.1875" width="47.625" height="47.625" rx="23.8125" fill="#FAFAFA"/>
<rect x="0.1875" y="0.1875" width="47.625" height="47.625" rx="23.8125" stroke="#CCCCCC" stroke-width="0.375"/>
<path d="M29.716 15.9477L17.8043 22.6807L21.5931 23.4489L26.1254 22.1729C26.8203 21.9772 27.5007 22.359 27.7547 22.9754L27.778 23.0357L27.8449 23.2107C28.2216 24.146 29.2269 25.9706 30.4382 27.8146C31.074 28.7825 31.7463 29.7246 32.3822 30.5095C33.0331 31.313 33.5926 31.8849 34 32.174L32.725 34C32.0614 33.5292 31.3465 32.7619 30.6661 31.922C29.9706 31.0635 29.2545 30.0575 28.591 29.0474C27.5287 27.4302 26.5472 25.7192 25.9992 24.5269L21.99 25.6558C21.7844 25.7137 21.568 25.7218 21.3587 25.6793L15.0875 24.4082C13.8559 24.1584 13.5966 22.4993 14.6923 21.8799L28.6324 14L29.716 15.9477Z" fill="#CCCCCC"/>
</svg>
