<svg width="current" height="current" viewBox="0 0 60 60" fill="none" xmlns="http://www.w3.org/2000/svg">
<rect width="40" height="40" rx="20" fill="#0066B3"/>
<path d="M34.5558 14.4419H32.5242V18.7531C31.206 18.7531 25.5084 18.7531 24.2244 18.7531V14.4419H22.1959C21.7121 14.4419 21.3213 14.8327 21.3213 15.3165V24.6833C21.3213 25.1672 21.7121 25.558 22.1959 25.558H24.2244V20.918C25.5084 20.918 31.2092 20.918 32.5242 20.918V25.5549H34.5558C35.0396 25.5549 35.4304 25.1641 35.4304 24.6802V15.3165C35.4304 14.8327 35.0396 14.4419 34.5558 14.4419Z" fill="white"/>
<path d="M18.1047 14.4419H16.0731V22.6301L9.68385 16.154C8.66653 15.1615 7.96868 14.4419 6.34655 14.4419H4.56934V24.6802C4.56934 25.1641 4.96014 25.5549 5.44398 25.5549H7.47552V17.3233L13.8121 23.756C14.848 24.7733 15.7723 25.5549 17.2765 25.5549H18.9824V15.3165C18.9793 14.8327 18.5885 14.4419 18.1047 14.4419Z" fill="white"/>
</svg>
