<svg width="current" height="current" viewBox="0 0 60 60" fill="white" xmlns="http://www.w3.org/2000/svg">
<path d="M30 54.375C32.75 54.375 35 52.125 35 49.375H25C25 52.125 27.25 54.375 30 54.375ZM45 39.375V26.875C45 19.2 40.925 12.775 33.75 11.075V9.375C33.75 7.3 32.075 5.625 30 5.625C27.925 5.625 26.25 7.3 26.25 9.375V11.075C19.1 12.775 15 19.175 15 26.875V39.375L10 44.375V46.875H50V44.375L45 39.375ZM40 41.875H20V26.875C20 20.675 23.775 15.625 30 15.625C36.225 15.625 40 20.675 40 26.875V41.875Z" fill="current"/>
</svg>
