<svg width="current" height="current" viewBox="0 0 60 60" fill="none" xmlns="http://www.w3.org/2000/svg">
<rect width="40" height="40" rx="20" fill="#FAFAFA"/>
<g clip-path="url(#clip0_6517_20208)">
<path d="M16.8443 32.1079C16.1974 32.5163 15.6116 32.7582 14.9952 32.7582C13.4059 32.7582 12.0764 31.3878 12 29.7325L15.0971 27.7871L19.916 30.0604L16.8443 32.1079Z" fill="#82BAD9"/>
<path d="M18.6879 23.7404L16.3855 22.6656C15.3616 22.1819 14.3887 21.7735 14.3887 20.5804C14.3887 19.9624 14.567 19.6346 14.8471 19.3121L19.7169 21.5746L18.5147 22.3109C18.1785 22.5259 17.9493 22.714 17.9493 22.988C17.9391 23.2836 18.2601 23.5362 18.6879 23.7404Z" fill="#B1D6A1"/>
<path d="M20.9497 12.5246L18.5912 14.0347C18.3773 14.1691 18.0971 14.384 18.0971 14.7119C18.0971 15.0934 18.6472 15.3783 19.1312 15.6201L16.1767 14.2497C15.3056 13.8466 14.4346 13.3845 14.4346 12.2774C14.4346 11.8098 14.5619 11.4337 14.7657 11.1112L21.1534 7C21.9226 7.4568 22.6613 8.38115 22.6613 9.62257C22.6613 10.95 22.0245 11.8421 20.9497 12.5246Z" fill="#82BAD9"/>
<path d="M25.9724 17.3935L25.3866 17.7428L20.5117 15.4696L26.1813 11.8689C26.9453 12.3364 27.6992 13.2554 27.6992 14.4915C27.6941 15.8242 27.0727 16.7379 25.9724 17.3935Z" fill="#B1D6A1"/>
<path d="M21.8517 21.7627L24.7399 23.1009C25.8198 23.606 26.151 24.2133 26.151 24.9657C26.151 25.401 25.9217 25.8309 25.5906 26.1265L20.7412 23.8532L21.5613 23.3696C22.2592 22.9665 22.4884 22.7193 22.4884 22.4506C22.4833 22.1711 22.3203 21.9884 21.8517 21.7627Z" fill="#82BAD9"/>
<path d="M26.9961 33C25.7634 32.0058 24.4543 31.3287 22.8599 30.5655L15.5093 27.1315C13.6603 26.2662 12.4326 25.1054 12.4326 23.1546C12.4326 21.2629 13.2986 20.344 14.4345 19.5916L14.842 19.3229C14.5619 19.6453 14.3836 19.9678 14.3836 20.5912C14.3836 21.7842 15.3565 22.1873 16.3804 22.6763L24.9382 26.6586C26.4256 27.3303 27.7908 28.4911 27.7908 30.4634C27.7959 31.5436 27.4036 32.5163 26.9961 33Z" fill="#00A539"/>
<path d="M26.1256 25.7772L25.5907 26.1265C25.9218 25.8309 26.151 25.3956 26.151 24.9657C26.151 24.2079 25.8199 23.606 24.74 23.1009L15.5863 18.8499C13.7372 17.9901 12.5859 16.8723 12.5859 14.9322C12.5859 13.1426 13.4315 11.9764 14.7661 11.1112C14.5624 11.4337 14.435 11.8098 14.435 12.2774C14.435 13.3845 15.3061 13.8413 16.1772 14.2497L25.0711 18.3931C26.691 19.1455 28.0001 20.2902 28.0001 22.37C28.0001 23.993 27.2768 25.0248 26.1256 25.7772Z" fill="#007DBA"/>
</g>
<defs>
<clipPath id="clip0_6517_20208">
<rect width="16" height="26" fill="white" transform="translate(12 7)"/>
</clipPath>
</defs>
</svg>
