<svg width="current" height="current" viewBox="0 0 60 60" fill="none" xmlns="http://www.w3.org/2000/svg">
<path fill-rule="evenodd" clip-rule="evenodd" d="M56.8101 3.27553C56.7962 3.26095 56.7821 3.24652 56.7678 3.23223C56.328 2.79248 55.7652 2.55081 55.1902 2.5072C55.0335 2.49522 54.8753 2.49797 54.7175 2.51592C54.5151 2.5388 54.3151 2.58634 54.1222 2.65854L4.17414 20.1403C3.20664 20.479 2.54388 21.3739 2.50209 22.3981C2.46031 23.4223 3.04797 24.3682 3.98467 24.7845L25.606 34.394L35.2155 56.0153C35.6318 56.952 36.5777 57.5397 37.6019 57.4979C38.6261 57.4561 39.521 56.7934 39.8597 55.8259L57.3414 5.87793C57.4139 5.68439 57.4615 5.48367 57.4843 5.28069C57.5664 4.55393 57.326 3.817 56.8101 3.27553ZM45.4858 10.9787L11.7777 22.7765L26.9464 29.5181L45.4858 10.9787ZM30.4819 33.0537L49.0213 14.5142L37.2235 48.2223L30.4819 33.0537Z" fill="#333333"/>
</svg>
