<svg width="current" height="current" viewBox="0 0 20 20"  fill="#222222" xmlns="http://www.w3.org/2000/svg">
<path d="M16.8394 11.3213C16.439 11.0083 16.2523 10.5082 16.2523 9.99999C16.2523 9.49179 16.439 8.99169 16.8394 8.67863L17.9523 7.80832C18.1106 7.68332 18.1523 7.45832 18.0523 7.27499L16.3856 4.39166C16.3106 4.25832 16.169 4.18332 16.019 4.18332C15.969 4.18332 15.919 4.19166 15.8773 4.20832L14.5591 4.73772C14.0901 4.92607 13.5638 4.84125 13.127 4.58688C12.6895 4.33205 12.3498 3.91719 12.278 3.41597L12.0773 2.01666C12.0523 1.81666 11.8773 1.66666 11.669 1.66666H8.33564C8.12731 1.66666 7.95231 1.81666 7.92731 2.01666L7.72744 3.41045C7.65508 3.91509 7.31206 4.33452 6.87261 4.59295C6.43936 4.84773 5.91749 4.92727 5.45108 4.73996L4.12731 4.20832C4.07731 4.19166 4.02731 4.18332 3.97731 4.18332C3.83564 4.18332 3.69397 4.25832 3.61897 4.39166L1.95231 7.27499C1.84397 7.45832 1.89397 7.68332 2.05231 7.80832L3.16526 8.67864C3.56559 8.99169 3.75231 9.4918 3.75231 9.99999C3.75231 10.5082 3.56559 11.0083 3.16526 11.3213L2.05231 12.1917C1.89397 12.3167 1.85231 12.5417 1.95231 12.725L3.61897 15.6083C3.69397 15.7417 3.83564 15.8167 3.98564 15.8167C4.03564 15.8167 4.08564 15.8083 4.12731 15.7917L5.44549 15.2623C5.9145 15.0739 6.44086 15.1587 6.8776 15.4131C7.31516 15.6679 7.65478 16.0828 7.72665 16.584L7.92731 17.9833C7.95231 18.1833 8.12731 18.3333 8.33564 18.3333H11.669C11.8773 18.3333 12.0523 18.1833 12.0773 17.9833L12.2772 16.5895C12.3495 16.0849 12.6926 15.6655 13.132 15.407C13.5653 15.1523 14.0871 15.0727 14.5535 15.26L15.8773 15.7917C15.9273 15.8083 15.9773 15.8167 16.0273 15.8167C16.169 15.8167 16.3106 15.7417 16.3856 15.6083L18.0523 12.725C18.1523 12.5417 18.1106 12.3167 17.9523 12.1917L16.8394 11.3213ZM14.544 9.39166C14.5773 9.64999 14.5856 9.82499 14.5856 9.99999C14.5856 10.175 14.569 10.3583 14.544 10.6083C14.472 11.1895 14.7087 11.7713 15.169 12.1333L15.6078 12.4746C15.8721 12.6802 15.9441 13.0492 15.7764 13.339C15.6095 13.6275 15.256 13.7495 14.9468 13.6253L14.4273 13.4167C13.8897 13.1995 13.2733 13.2838 12.8106 13.6333C12.4523 13.9 12.1106 14.1 11.769 14.2417C11.2234 14.463 10.8348 14.9587 10.7523 15.5417L10.6708 16.0916C10.6219 16.422 10.3383 16.6667 10.0043 16.6667C9.6686 16.6667 9.38409 16.4195 9.33717 16.087L9.24359 15.4239C9.17161 14.9139 8.83351 14.4808 8.35622 14.2872L8.24397 14.2417C7.88564 14.0917 7.55231 13.9 7.21897 13.65C6.75099 13.29 6.12443 13.203 5.57731 13.425L5.05783 13.6336C4.74858 13.7578 4.39507 13.6358 4.2282 13.3474C4.06055 13.0576 4.13254 12.6885 4.3968 12.483L4.83564 12.1417C5.29596 11.7796 5.53265 11.1979 5.46064 10.6167C5.43564 10.3583 5.41897 10.1667 5.41897 9.99999C5.41897 9.83332 5.43564 9.64166 5.46064 9.39166C5.53265 8.81046 5.29596 8.22871 4.83564 7.86666L4.3968 7.52534C4.13254 7.3198 4.06055 6.95074 4.2282 6.66095C4.39507 6.3725 4.74858 6.25053 5.05783 6.37471L5.57731 6.58332C6.11495 6.80045 6.73135 6.71619 7.19397 6.36666C7.55231 6.09999 7.89397 5.89999 8.23564 5.75832C8.7812 5.53701 9.16977 5.04125 9.25231 4.45832L9.33439 3.90425C9.38299 3.57623 9.66454 3.33332 9.99613 3.33332C10.3295 3.33332 10.6119 3.57873 10.6585 3.9088L10.7527 4.57603C10.8247 5.08606 11.1628 5.51917 11.6401 5.71279L11.7523 5.75832C12.1106 5.90832 12.444 6.09999 12.7773 6.34999C13.2453 6.70998 13.8718 6.79694 14.419 6.57499L14.9356 6.36751C15.2465 6.24267 15.6019 6.36528 15.7696 6.65524C15.9368 6.94426 15.867 7.31215 15.6056 7.51984L15.169 7.86666C14.7087 8.22871 14.472 8.81046 14.544 9.39166ZM10.0023 6.66666C8.16064 6.66666 6.66897 8.15832 6.66897 9.99999C6.66897 11.8417 8.16064 13.3333 10.0023 13.3333C11.844 13.3333 13.3356 11.8417 13.3356 9.99999C13.3356 8.15832 11.844 6.66666 10.0023 6.66666ZM10.0023 11.6667C9.08564 11.6667 8.33564 10.9167 8.33564 9.99999C8.33564 9.08332 9.08564 8.33332 10.0023 8.33332C10.919 8.33332 11.669 9.08332 11.669 9.99999C11.669 10.9167 10.919 11.6667 10.0023 11.6667Z"/>
</svg>
