<svg xmlns="http://www.w3.org/2000/svg" width="20" height="20" viewBox="0 0 60 60"  fill="#333333">
  <path fill-rule="evenodd" clip-rule="evenodd" d="M45 7.5C42.2386 7.5 40 9.73858 40 12.5C40 15.2614 42.2386 17.5 45 17.5C47.7614 17.5 50 15.2614 50 12.5C50 9.73858 47.7614 7.5 45 7.5ZM35 12.5C35 6.97715 39.4772 2.5 45 2.5C50.5228 2.5 55 6.97715 55 12.5C55 18.0228 50.5228 22.5 45 22.5C42.1007 22.5 39.4895 21.2661 37.663 19.2948L24.6143 27.24C24.8655 28.1167 25 29.0426 25 30C25 30.942 24.8697 31.8536 24.6263 32.7178L37.9033 40.4546C39.7149 38.6299 42.2255 37.5 45 37.5C50.5228 37.5 55 41.9772 55 47.5C55 53.0228 50.5228 57.5 45 57.5C39.4772 57.5 35 53.0228 35 47.5C35 46.5534 35.1315 45.6375 35.3773 44.7697L22.1059 37.0361C20.2935 38.8663 17.7792 40 15 40C9.47715 40 5 35.5228 5 30C5 24.4772 9.47715 20 15 20C17.7635 20 20.2652 21.121 22.0752 22.9331L35.287 14.8886C35.0995 14.1232 35 13.3232 35 12.5ZM19.2492 27.3636C18.367 25.9446 16.7938 25 15 25C12.2386 25 10 27.2386 10 30C10 32.7614 12.2386 35 15 35C16.7938 35 18.3669 34.0554 19.2492 32.6365C19.2699 32.5961 19.2918 32.556 19.315 32.5163C19.3388 32.4753 19.3637 32.4353 19.3895 32.3962C19.7787 31.6847 20 30.8682 20 30C20 29.1317 19.7787 28.3152 19.3894 27.6036C19.3639 27.565 19.3394 27.5255 19.3158 27.4851C19.2924 27.4449 19.2702 27.4044 19.2492 27.3636ZM40 47.5C40 46.6871 40.194 45.9195 40.5382 45.241C40.5999 45.1599 40.6574 45.074 40.71 44.9837C40.7605 44.897 40.8052 44.8086 40.8442 44.7189C41.7414 43.3808 43.2679 42.5 45 42.5C47.7614 42.5 50 44.7386 50 47.5C50 50.2614 47.7614 52.5 45 52.5C42.2386 52.5 40 50.2614 40 47.5Z"/>
</svg>
