<svg width="current" height="current" viewBox="0 0 40 40" fill="none" xmlns="http://www.w3.org/2000/svg">
<rect width="40" height="40" rx="20" fill="#0046FF"/>
<path d="M12.0547 12.6406C12.3394 7.93379 16.5113 6.76422 19.6734 7.03711C20.0438 7.06786 20.2505 7.2873 20.1805 7.59484C20.1151 7.92124 19.636 7.94854 19.6235 7.94919C18.6175 8.00688 17.7163 8.10693 17.0339 8.56458C14.4882 10.2567 15.2368 13.1293 18.6327 16.3288C19.0616 16.7288 19.5142 17.1561 19.986 17.5869C20.0011 17.6001 20.6794 18.1933 22.0249 19.4519C24.6373 21.8248 26.0687 23.1013 26.0687 23.1013C30.6735 26.8817 29.0979 30.3429 27.3432 31.5428C25.9981 32.4618 24.5123 32.893 22.5628 32.9969L22.5128 33C22.3296 32.9962 22.06 32.8928 22.0483 32.6121C22.0366 32.2866 22.5162 32.205 22.5203 32.2043C26.8678 31.3582 25.5969 28.5468 24.0606 27.1124C23.4133 26.5124 17.3656 21.3589 17.3656 21.3589C11.595 16.4594 12.0547 12.6406 12.0547 12.6406ZM9.53209 21.9093C9.77382 21.9516 10.1953 23.0049 10.6515 23.7701C11.1233 24.5585 11.5057 24.997 11.8644 25.2662C12.0283 25.3846 12.5819 24.1739 13.3888 23.4818C13.8566 23.0975 14.3671 22.967 14.4529 24.1088C14.5503 25.5046 14.2971 27.1622 14.7101 27.1627C15.0884 27.1627 15.9663 26.8737 17.8769 26.7161C18.5979 26.6546 19.0105 26.79 18.3245 27.7435C17.9814 28.2203 17.5251 28.893 16.4376 29.662C18.0631 31.1653 20.012 30.9815 20.0519 31.6193C20.0714 31.9884 19.3466 32.1927 18.3914 32.1928C18.1537 32.1928 17.9077 32.1777 17.6505 32.1508C16.0285 31.9931 14.0906 31.4888 12.4023 30.0467C10.8465 28.7276 9.88731 26.9086 9.41941 25.305C8.94374 23.6667 8.74069 21.7557 9.53209 21.9093ZM21.7209 8.422C22.0834 7.60293 23.2336 8.64474 24.5241 8.72184C25.6313 8.77952 26.2984 8.72986 27.1561 8.84135C28.2984 8.98747 29.6709 9.37173 30.2793 10.0753C30.8369 10.7214 29.9789 11.5062 28.9612 11.0178C28.2087 10.6566 27.2698 10.876 27.8195 11.6489C28.4861 12.3793 28.8062 12.4026 29.4884 12.5756C31.3596 13.0642 31.3984 14.8335 30.1273 15.7449C28.6926 16.7867 27.2226 16.3519 26.6416 14.3138C26.3492 13.2949 25.6202 12.7753 24.8717 13.0673C24.1309 13.3558 24.571 14.6945 25.1364 15.9367C26.1151 18.4018 24.1385 18.6593 23.3781 18.6593C23.2577 18.6632 23.1682 18.6559 23.1251 18.652C21.6356 18.3443 21.3307 17.0134 21.3307 17.0134C21.2099 16.5442 21.1794 15.9478 21.2808 15.1903C21.4835 13.6061 21.9163 12.8678 22.4076 11.6374C23.0704 9.98755 21.4597 9.02579 21.7209 8.422Z" fill="white"/>
</svg>
