<svg width="84" height="28" viewBox="0 0 84 28" fill="none" xmlns="http://www.w3.org/2000/svg">
<rect width="84" height="28" rx="14" fill="#ADD8E6"/>
<path d="M21.684 15.576H23.154V18.642H21.684V15.576ZM22.426 9.122C23.3313 9.122 24.134 9.262 24.834 9.542C25.5433 9.822 26.1033 10.2187 26.514 10.732C26.9247 11.2453 27.13 11.8473 27.13 12.538C27.13 13.238 26.9247 13.8447 26.514 14.358C26.1033 14.8713 25.5433 15.2727 24.834 15.562C24.134 15.842 23.3313 15.982 22.426 15.982C21.5207 15.982 20.7133 15.842 20.004 15.562C19.2947 15.2727 18.7347 14.8713 18.324 14.358C17.9133 13.8447 17.708 13.238 17.708 12.538C17.708 11.8473 17.9133 11.2453 18.324 10.732C18.7347 10.2187 19.2947 9.822 20.004 9.542C20.7133 9.262 21.5207 9.122 22.426 9.122ZM22.426 10.284C21.782 10.284 21.2127 10.3773 20.718 10.564C20.2327 10.7413 19.85 10.998 19.57 11.334C19.29 11.67 19.15 12.0713 19.15 12.538C19.15 13.0047 19.29 13.4107 19.57 13.756C19.85 14.092 20.2327 14.3533 20.718 14.54C21.2127 14.7173 21.782 14.806 22.426 14.806C23.0607 14.806 23.6253 14.7173 24.12 14.54C24.6147 14.3533 25.002 14.092 25.282 13.756C25.562 13.4107 25.702 13.0047 25.702 12.538C25.702 12.0713 25.562 11.67 25.282 11.334C25.002 10.998 24.6147 10.7413 24.12 10.564C23.6253 10.3773 23.0607 10.284 22.426 10.284ZM16.644 18.376H28.236V19.58H16.644V18.376ZM30.5589 8.954H40.0229V10.13H30.5589V8.954ZM30.6289 12.706H39.9389V13.868H30.6289V12.706ZM32.3649 9.458H33.8209V13.266H32.3649V9.458ZM36.7609 9.458H38.2169V13.266H36.7609V9.458ZM29.5229 15.072H41.0869V16.262H29.5229V15.072ZM30.9649 19.706H39.7989V20.896H30.9649V19.706ZM30.9649 17.284H32.4349V20.07H30.9649V17.284ZM46.2603 20V9.682H48.9343C49.9983 9.682 50.899 9.878 51.6363 10.27C52.3737 10.6527 52.9337 11.222 53.3163 11.978C53.7083 12.734 53.9043 13.6767 53.9043 14.806C53.9043 15.926 53.7083 16.8733 53.3163 17.648C52.9337 18.4227 52.3783 19.0107 51.6503 19.412C50.9223 19.804 50.045 20 49.0183 20H46.2603ZM47.8843 18.67H48.8223C49.5597 18.67 50.1803 18.5253 50.6843 18.236C51.1977 17.9467 51.5803 17.5173 51.8323 16.948C52.0937 16.3693 52.2243 15.6553 52.2243 14.806C52.2243 13.9473 52.0937 13.238 51.8323 12.678C51.5803 12.118 51.1977 11.7027 50.6843 11.432C50.1803 11.152 49.5597 11.012 48.8223 11.012H47.8843V18.67ZM55.3494 16.64V15.45H59.0454V16.64H55.3494ZM63.9933 20.196C63.4986 20.196 63.032 20.098 62.5933 19.902C62.164 19.6967 61.786 19.3933 61.4593 18.992C61.142 18.5907 60.89 18.0867 60.7033 17.48C60.5166 16.864 60.4233 16.1407 60.4233 15.31C60.4233 14.3207 60.526 13.4807 60.7313 12.79C60.946 12.09 61.2353 11.516 61.5993 11.068C61.9633 10.62 62.3786 10.2933 62.8453 10.088C63.312 9.88267 63.802 9.78 64.3153 9.78C64.894 9.78 65.3933 9.88733 65.8133 10.102C66.2426 10.3167 66.602 10.578 66.8913 10.886L66.0093 11.866C65.8226 11.642 65.5846 11.46 65.2953 11.32C65.006 11.18 64.7026 11.11 64.3853 11.11C63.9373 11.11 63.5266 11.2407 63.1533 11.502C62.78 11.7633 62.4813 12.202 62.2573 12.818C62.0333 13.4247 61.9213 14.2553 61.9213 15.31C61.9213 16.1407 62.0053 16.8267 62.1733 17.368C62.3413 17.9 62.5793 18.2967 62.8873 18.558C63.1953 18.8193 63.5546 18.95 63.9653 18.95C64.264 18.95 64.5346 18.8707 64.7773 18.712C65.02 18.544 65.2113 18.3107 65.3513 18.012C65.5006 17.704 65.5753 17.34 65.5753 16.92C65.5753 16.5093 65.5053 16.164 65.3653 15.884C65.2346 15.5947 65.0433 15.3753 64.7913 15.226C64.5393 15.0767 64.2313 15.002 63.8673 15.002C63.5686 15.002 63.242 15.1 62.8873 15.296C62.542 15.492 62.2153 15.8327 61.9073 16.318L61.8373 15.142C62.0426 14.8713 62.276 14.638 62.5373 14.442C62.7986 14.246 63.0693 14.0967 63.3493 13.994C63.6386 13.882 63.9093 13.826 64.1613 13.826C64.74 13.826 65.2486 13.9427 65.6873 14.176C66.126 14.4 66.4666 14.7407 66.7093 15.198C66.952 15.6553 67.0733 16.2293 67.0733 16.92C67.0733 17.5827 66.9286 18.1567 66.6393 18.642C66.3593 19.1273 65.986 19.51 65.5193 19.79C65.062 20.0607 64.5533 20.196 63.9933 20.196Z" fill="#333333"/>
</svg>
