<svg width="25" height="24" viewBox="0 0 25 24" fill="none" xmlns="http://www.w3.org/2000/svg">
<path d="M12.375 1C15.6887 1 18.375 3.68629 18.375 7V8C18.375 8.55228 17.9273 9 17.375 9C16.8227 9 16.375 8.55228 16.375 8V7C16.375 4.79086 14.5841 3 12.375 3C10.1659 3 8.375 4.79086 8.375 7V10H19.375C21.0319 10 22.375 11.3431 22.375 13V20C22.375 21.6569 21.0319 23 19.375 23H5.375C3.71815 23 2.375 21.6569 2.375 20V13C2.375 11.3431 3.71815 10 5.375 10H6.375V7C6.375 3.68629 9.06129 1 12.375 1ZM5.375 12C4.82272 12 4.375 12.4477 4.375 13V20C4.375 20.5523 4.82272 21 5.375 21H19.375C19.9273 21 20.375 20.5523 20.375 20V13C20.375 12.4477 19.9273 12 19.375 12H5.375Z" fill="#333333"/>
</svg>
