<svg width="current" height="current" viewBox="0 0 60 60" fill="none" xmlns="http://www.w3.org/2000/svg">
<g clip-path="url(#clip0_6517_19710)">
<rect width="40" height="40" rx="20" fill="white"/>
<g clip-path="url(#clip1_6517_19710)">
<path d="M39.7122 19.9962C39.7122 31.0499 30.8418 40 19.9354 40C8.99124 40 0.14356 31.0499 0.14356 19.9962C0.135991 8.95009 8.99124 0 19.9279 0C30.8418 0 39.7122 8.95009 39.7122 19.9962Z" fill="white"/>
<path d="M19.9286 39.0438C30.3278 39.0438 38.7668 30.5221 38.7668 19.9962C38.7668 9.47796 30.3278 0.948608 19.9134 0.948608C9.5066 0.948608 1.0752 9.47796 1.0752 19.9962C1.08276 30.5221 9.51417 39.0438 19.9286 39.0438Z" fill="#0083CA"/>
<mask id="mask0_6517_19710" style="mask-type:luminance" maskUnits="userSpaceOnUse" x="1" y="0" width="38" height="40">
<path d="M19.9286 39.0438C30.3278 39.0438 38.7668 30.5221 38.7668 19.9962C38.7668 9.47796 30.3278 0.948608 19.9134 0.948608C9.5066 0.948608 1.0752 9.47796 1.0752 19.9962C1.08276 30.5221 9.51417 39.0438 19.9286 39.0438Z" fill="white"/>
</mask>
<g mask="url(#mask0_6517_19710)">
<path d="M19.9962 29.1988C28.2763 29.1988 35.3756 31.5319 38.4182 34.8366C39.4399 32.4652 40 29.8567 40 27.1257C40 16.1944 31.0312 7.34375 19.9962 7.34375C8.95364 7.34375 0 16.202 0 27.1257C0 29.872 0.560076 32.4652 1.58184 34.8366C4.61684 31.5319 11.7162 29.1988 19.9962 29.1988Z" fill="#0083CA"/>
<path d="M19.9962 29.2141C28.2535 29.2141 35.3377 31.5319 38.3728 34.806C39.3945 32.4499 39.9546 29.8643 39.9546 27.1563C39.9546 16.3168 31.0161 7.50439 20.0038 7.50439C8.99148 7.50439 0.0605469 16.3168 0.0605469 27.1563C0.0605469 29.8796 0.620623 32.4575 1.63481 34.806C4.65468 31.5319 11.7313 29.2141 19.9962 29.2141Z" fill="#0085CB"/>
<path d="M19.9886 29.237C28.2233 29.237 35.2923 31.5319 38.3122 34.783C39.334 32.4499 39.8865 29.8872 39.8865 27.1945C39.8865 16.4391 30.9707 7.6803 19.9811 7.6803C8.99905 7.6803 0.0908203 16.4468 0.0908203 27.1945C0.0908203 29.8949 0.650896 32.4499 1.66509 34.783C4.68496 31.5319 11.754 29.237 19.9886 29.237Z" fill="#0086CC"/>
<path d="M19.9884 29.26C28.2003 29.26 35.2467 31.5319 38.2665 34.7601C39.2807 32.4499 39.8408 29.9026 39.8408 27.2328C39.8408 16.5692 30.9477 7.84863 19.9884 7.84863C9.03665 7.84863 0.143555 16.5769 0.143555 27.2328C0.143555 29.9102 0.70363 32.4499 1.71025 34.7601C4.72255 31.5319 11.7689 29.26 19.9884 29.26Z" fill="#0088CC"/>
<path d="M19.9891 29.283C28.1859 29.283 35.2096 31.5396 38.2219 34.7372C39.2361 32.4423 39.7886 29.9179 39.7886 27.2711C39.7886 16.6917 30.9182 8.01697 19.9891 8.01697C9.06009 8.01697 0.197266 16.6993 0.197266 27.2711C0.197266 29.9256 0.757341 32.4423 1.76396 34.7372C4.76113 31.5396 11.7923 29.283 19.9891 29.283Z" fill="#0089CD"/>
<path d="M19.9811 29.2982C28.1551 29.2982 35.1637 31.5395 38.1684 34.7142C39.175 32.4422 39.7351 29.9408 39.7351 27.3093C39.7351 16.8216 30.8874 8.18518 19.9886 8.18518C9.0823 8.18518 0.242188 16.8293 0.242188 27.3093C0.242188 29.9484 0.794695 32.4346 1.80132 34.7142C4.79848 31.5395 11.807 29.2982 19.9811 29.2982Z" fill="#008BCE"/>
<path d="M19.9808 29.3212C28.1322 29.3212 35.1256 31.5396 38.1152 34.6912C39.1218 32.4346 39.6743 29.9561 39.6743 27.3476C39.6743 16.9441 30.8493 8.35352 19.9808 8.35352C9.11233 8.35352 0.294922 16.9441 0.294922 27.3476C0.294922 29.9638 0.847429 32.4346 1.85405 34.6912C4.83608 31.5396 11.8295 29.3212 19.9808 29.3212Z" fill="#008DCF"/>
<path d="M19.9813 29.3441C28.11 29.3441 35.0882 31.5472 38.0702 34.6683C39.0769 32.4346 39.6294 29.9714 39.6294 27.3934C39.6294 17.0817 30.8271 8.52942 19.9813 8.52942C9.14309 8.52942 0.34082 17.0817 0.34082 27.3934C0.34082 29.9867 0.893327 32.4346 1.89238 34.6683C4.87441 31.5472 11.8451 29.3441 19.9813 29.3441Z" fill="#008ED0"/>
<path d="M19.9733 29.3671C28.0792 29.3671 35.0423 31.5472 38.0168 34.6454C39.0158 32.427 39.5683 29.9867 39.5683 27.4317C39.5683 17.2042 30.7888 8.69775 19.9733 8.69775C9.15774 8.69775 0.385742 17.2042 0.385742 27.4317C0.385742 30.002 0.938249 32.4346 1.9373 34.6454C4.91176 31.5472 11.8673 29.3671 19.9733 29.3671Z" fill="#0090D0"/>
<path d="M19.9733 29.39C28.0565 29.39 34.9969 31.5549 37.9714 34.6224C38.9704 32.4193 39.5229 30.0096 39.5229 27.4699C39.5229 17.3342 30.7661 8.87366 19.9808 8.87366C9.19558 8.87366 0.446289 17.3342 0.446289 27.4699C0.446289 30.0173 0.998796 32.4269 1.99028 34.6224C4.9496 31.5472 11.8824 29.39 19.9733 29.39Z" fill="#0092D1"/>
<path d="M19.9737 29.4053C28.0343 29.4053 34.9595 31.5472 37.9189 34.5918C38.9179 32.4116 39.4629 30.0173 39.4629 27.5005C39.4629 17.4489 30.7287 9.0343 19.9737 9.0343C9.21877 9.0343 0.492188 17.4489 0.492188 27.5005C0.492188 30.0249 1.03713 32.4116 2.03618 34.5918C4.98036 31.5549 11.9056 29.4053 19.9737 29.4053Z" fill="#0093D2"/>
<path d="M19.9657 29.4283C28.0035 29.4283 34.9136 31.5549 37.8654 34.5689C38.8569 32.4117 39.4094 30.0326 39.4094 27.5388C39.4094 17.5714 30.6979 9.20264 19.9657 9.20264C9.24099 9.20264 0.537109 17.579 0.537109 27.5388C0.537109 30.0403 1.08205 32.4117 2.07353 34.5689C5.01771 31.5549 11.9203 29.4283 19.9657 29.4283Z" fill="#0095D3"/>
<path d="M19.9662 29.4512C27.9889 29.4512 34.8763 31.5548 37.8205 34.5458C38.812 32.4039 39.3569 30.0478 39.3569 27.577C39.3569 17.7013 30.6682 9.37085 19.9662 9.37085C9.26418 9.37085 0.583008 17.7013 0.583008 27.577C0.583008 30.0555 1.12795 32.4039 2.11943 34.5458C5.05604 31.5548 11.9435 29.4512 19.9662 29.4512Z" fill="#0097D4"/>
<path d="M19.9662 29.4742C27.9662 29.4742 34.8384 31.5625 37.7751 34.5229C38.759 32.404 39.3115 30.0708 39.3115 27.6153C39.3115 17.8237 30.6454 9.53918 19.9737 9.53918C9.30202 9.53918 0.643555 17.8237 0.643555 27.6153C0.643555 30.0708 1.18849 32.404 2.17241 34.5229C5.09389 31.5549 11.9586 29.4742 19.9662 29.4742Z" fill="#0098D5"/>
<path d="M19.9588 29.4894C27.9361 29.4894 34.7933 31.5548 37.7148 34.4923C38.6987 32.3886 39.2436 30.0785 39.2436 27.6535C39.2436 17.9538 30.6003 9.71509 19.9588 9.71509C9.3174 9.70744 0.681641 17.9538 0.681641 27.6535C0.681641 30.0861 1.22658 32.3963 2.2105 34.4923C5.13197 31.5625 11.9815 29.4894 19.9588 29.4894Z" fill="#009AD5"/>
<path d="M19.9584 29.5124C27.9129 29.5124 34.7474 31.5625 37.6688 34.4694C38.6528 32.3887 39.1977 30.0938 39.1977 27.6918C39.1977 18.0762 30.5771 9.88342 19.9584 9.88342C9.34719 9.88342 0.726562 18.0838 0.726562 27.6918C0.726562 30.1014 1.2715 32.3963 2.24785 34.4694C5.16932 31.5625 11.9962 29.5124 19.9584 29.5124Z" fill="#009CD6"/>
<path d="M19.9581 29.5354C27.89 29.5354 34.7093 31.5626 37.6232 34.4465C38.5995 32.3811 39.1445 30.1168 39.1445 27.7301C39.1445 18.2063 30.5466 10.0518 19.9581 10.0518C9.36965 10.0518 0.779297 18.2063 0.779297 27.7301C0.779297 30.1168 1.31667 32.3887 2.29302 34.4465C5.20692 31.5626 12.0187 29.5354 19.9581 29.5354Z" fill="#009ED7"/>
<path d="M19.951 29.5583C27.8602 29.5583 34.6644 31.5701 37.5707 34.4235C38.5471 32.381 39.0844 30.132 39.0844 27.7683C39.0844 18.3286 30.5092 10.22 19.951 10.22C9.39284 10.22 0.825195 18.3286 0.825195 27.7683C0.825195 30.132 1.36257 32.381 2.33891 34.4235C5.24525 31.5701 12.0343 29.5583 19.951 29.5583Z" fill="#00A0D8"/>
<path d="M19.9508 29.5736C27.8372 29.5736 34.6263 31.5625 37.5175 34.3929C38.4938 32.3657 39.0312 30.1397 39.0312 27.7989C39.0312 18.4433 30.4863 10.3806 19.9508 10.3806C9.42287 10.3806 0.87793 18.451 0.87793 27.7989C0.87793 30.1473 1.4153 32.3733 2.38408 34.3929C5.27528 31.5701 12.0567 29.5736 19.9508 29.5736Z" fill="#00A1D9"/>
<path d="M19.9513 29.5966C27.8226 29.5966 34.5889 31.5702 37.4725 34.3699C38.4413 32.3581 38.9787 30.155 38.9787 27.8371C38.9787 18.5734 30.4565 10.549 19.9437 10.549C9.44606 10.549 0.923828 18.5734 0.923828 27.8371C0.923828 30.1626 1.4612 32.3657 2.42998 34.3699C5.31361 31.5702 12.0724 29.5966 19.9513 29.5966Z" fill="#00A3DA"/>
<path d="M19.9432 29.6195C27.7918 29.6195 34.5354 31.5701 37.4191 34.347C38.3879 32.3581 38.9252 30.1703 38.9252 27.8754C38.9252 18.6958 30.4257 10.7249 19.9432 10.7249C9.46828 10.7249 0.96875 18.7034 0.96875 27.8754C0.96875 30.1779 1.50612 32.3657 2.46733 34.347C5.35096 31.5701 12.0946 29.6195 19.9432 29.6195Z" fill="#00A5DB"/>
<path d="M19.943 29.6425C27.7689 29.6425 34.4974 31.5778 37.3734 34.3241C38.3422 32.3504 38.872 30.1932 38.872 27.9137C38.872 18.8259 30.3952 10.8932 19.943 10.8932C9.49831 10.8932 1.02148 18.8259 1.02148 27.9137C1.02148 30.1932 1.55129 32.3581 2.52007 34.3241C5.38856 31.5778 12.1095 29.6425 19.943 29.6425Z" fill="#00A7DC"/>
<path d="M19.9437 29.6577C27.7469 29.6577 34.4603 31.5778 37.3212 34.3011C38.2824 32.3504 38.8198 30.2085 38.8198 27.9595C38.8198 18.9559 30.3656 11.0691 19.9437 11.0691C9.52931 11.0691 1.0752 18.9635 1.0752 27.9595C1.0752 30.2162 1.605 32.3581 2.56621 34.3011C5.42713 31.5778 12.1329 29.6577 19.9437 29.6577Z" fill="#00A9DD"/>
<path d="M19.9361 29.6807C27.7166 29.6807 34.4148 31.5778 37.2682 34.2782C38.2294 32.3428 38.7592 30.2238 38.7592 27.9978C38.7592 19.086 30.3278 11.2374 19.9286 11.2374C9.54445 11.2374 1.10547 19.086 1.10547 27.9978C1.10547 30.2315 1.63527 32.3581 2.59648 34.2782C5.46498 31.5778 12.148 29.6807 19.9361 29.6807Z" fill="#00ABDE"/>
<path d="M19.9361 29.7037C27.6939 29.7037 34.377 31.5855 37.2228 34.2553C38.184 32.3428 38.7138 30.2468 38.7138 28.0361C38.7138 19.2084 30.3051 11.4058 19.9361 11.4058C9.57472 11.4058 1.16602 19.2084 1.16602 28.0361C1.16602 30.2468 1.69582 32.3505 2.64946 34.2553C5.50282 31.5855 12.1707 29.7037 19.9361 29.7037Z" fill="#00ADDE"/>
<path d="M19.9359 29.7266C27.671 29.7266 34.3313 31.5854 37.1771 34.2322C38.1308 32.3351 38.6606 30.2621 38.6606 28.0743C38.6606 19.3384 30.2746 11.574 19.9359 11.574C9.60475 11.574 1.21875 19.3307 1.21875 28.0743C1.21875 30.2621 1.74855 32.3504 2.70219 34.2322C5.54042 31.5854 12.1856 29.7266 19.9359 29.7266Z" fill="#00AFDF"/>
<path d="M19.9278 29.7419C27.6402 29.7419 34.2854 31.5855 37.1161 34.2017C38.0697 32.3275 38.5995 30.2698 38.5995 28.1049C38.5995 19.4532 30.2362 11.7423 19.9278 11.7423C9.62696 11.7423 1.26367 19.4608 1.26367 28.1049C1.26367 30.2698 1.79347 32.3352 2.73955 34.2017C5.5702 31.5855 12.2079 29.7419 19.9278 29.7419Z" fill="#00B1E0"/>
<path d="M19.9283 29.7649C27.6256 29.7649 34.2481 31.5855 37.0712 34.1788C38.0172 32.3275 38.547 30.2851 38.547 28.1432C38.547 19.5756 30.2064 11.9106 19.9207 11.9106C9.65016 11.9106 1.30957 19.5832 1.30957 28.1432C1.30957 30.2851 1.8318 32.3275 2.78545 34.1788C5.60853 31.5855 12.2235 29.7649 19.9283 29.7649Z" fill="#00B3E1"/>
<path d="M19.9281 29.7878C27.6026 29.7878 34.21 31.5931 37.0255 34.1557C37.9716 32.3198 38.5014 30.308 38.5014 28.1814C38.5014 19.7056 30.1835 12.0789 19.9281 12.0789C9.68019 12.0789 1.3623 19.7056 1.3623 28.1814C1.3623 30.3003 1.88454 32.3275 2.83061 34.1557C5.64613 31.5931 12.2459 29.7878 19.9281 29.7878Z" fill="#0DB5E2"/>
<path d="M19.9278 29.8108C27.5797 29.8108 34.1719 31.5931 36.9798 34.1328C37.9259 32.3122 38.4482 30.3233 38.4482 28.2197C38.4482 19.828 30.153 12.2472 19.9278 12.2472C9.71021 12.2472 1.41504 19.828 1.41504 28.2197C1.41504 30.3233 1.93727 32.3199 2.88335 34.1328C5.68372 31.5931 12.2608 29.8108 19.9278 29.8108Z" fill="#19B7E3"/>
<path d="M19.921 29.8337C27.5501 29.8337 34.1272 31.6008 36.9276 34.1098C37.8661 32.3122 38.3959 30.3386 38.3959 28.2655C38.3959 19.9656 30.1234 12.4231 19.9285 12.4231C9.74122 12.4231 1.46875 19.9656 1.46875 28.2655C1.46875 30.3462 1.99098 32.3275 2.92949 34.1098C5.7223 31.5931 12.2843 29.8337 19.921 29.8337Z" fill="#21B9E4"/>
<path d="M19.9205 29.849C27.5269 29.849 34.0813 31.5931 36.8741 34.0792C37.8126 32.2969 38.3349 30.3462 38.3349 28.2961C38.3349 20.0804 30.0851 12.5837 19.9205 12.5837C9.76344 12.5837 1.51367 20.0804 1.51367 28.2961C1.51367 30.3539 2.0359 32.3122 2.96684 34.0792C5.75965 31.6008 12.2989 29.849 19.9205 29.849Z" fill="#28BBE5"/>
<path d="M19.9202 29.9025C27.5191 29.9025 34.0659 31.639 36.8512 34.1022C37.7897 32.3351 38.3119 30.3998 38.3119 28.3573C38.3119 20.1951 30.0773 12.7444 19.9202 12.7444C9.77076 12.7444 1.53613 20.1951 1.53613 28.3573C1.53613 30.3998 2.05837 32.3504 2.9893 34.1022C5.77454 31.6314 12.3062 29.9025 19.9202 29.9025Z" fill="#37BDE6"/>
<path d="M19.921 29.9484C27.5123 29.9484 34.044 31.6696 36.8292 34.1251C37.7677 32.3734 38.2899 30.4457 38.2899 28.4185C38.2899 20.3099 30.0629 12.905 19.921 12.905C9.78663 12.905 1.55957 20.3175 1.55957 28.4185C1.55957 30.4457 2.07423 32.381 3.01274 34.1251C5.79798 31.6696 12.3221 29.9484 19.921 29.9484Z" fill="#43BFE6"/>
<path d="M19.9207 29.9943C27.4969 29.9943 34.0286 31.7079 36.8063 34.1404C37.7372 32.3963 38.2594 30.4839 38.2594 28.4644C38.2594 20.4093 30.0475 13.0427 19.9207 13.0427C9.80152 13.0427 1.58203 20.4093 1.58203 28.4644C1.58203 30.4839 2.0967 32.404 3.0352 34.1404C5.81287 31.7079 12.3294 29.9943 19.9207 29.9943Z" fill="#4DC0E7"/>
<path d="M19.9207 30.0479C27.4893 30.0479 34.0059 31.7461 36.7835 34.1711C37.7145 32.4423 38.2367 30.5375 38.2367 28.5333C38.2367 20.5318 30.0324 13.2111 19.9207 13.2111C9.81666 13.2111 1.6123 20.5394 1.6123 28.5333C1.6123 30.5375 2.12697 32.4423 3.05791 34.1711C5.83558 31.7461 12.3446 30.0479 19.9207 30.0479Z" fill="#56C2E8"/>
<path d="M19.9205 30.0938C27.4815 30.0938 33.9905 31.7843 36.7606 34.1863C37.6915 32.4651 38.2138 30.5757 38.2138 28.5868C38.2138 20.6388 30.0245 13.3563 19.9205 13.3563C9.82398 13.3563 1.63477 20.6388 1.63477 28.5868C1.63477 30.5757 2.14943 32.4728 3.08037 34.1863C5.85047 31.7843 12.3519 30.0938 19.9205 30.0938Z" fill="#5EC4E8"/>
<path d="M19.9202 30.1397C27.4661 30.1397 33.9675 31.815 36.7376 34.2017C37.6686 32.4958 38.1908 30.6217 38.1908 28.6404C38.1908 20.746 30.0092 13.5094 19.9278 13.5094C9.83887 13.517 1.65723 20.7536 1.65723 28.6481C1.65723 30.6217 2.17189 32.5035 3.10283 34.2093C5.87293 31.8227 12.3592 30.1397 19.9202 30.1397Z" fill="#65C6E9"/>
<path d="M19.9202 30.1856C27.4586 30.1856 33.9448 31.8533 36.7149 34.2246C37.6459 32.5264 38.1605 30.6676 38.1605 28.7016C38.1605 20.8607 29.9865 13.67 19.9202 13.67C9.85401 13.67 1.6875 20.8684 1.6875 28.7016C1.6875 30.6676 2.20216 32.5341 3.12553 34.2246C5.88807 31.8533 12.3743 30.1856 19.9202 30.1856Z" fill="#6DC7EA"/>
<path d="M19.921 30.2391C27.4517 30.2391 33.9304 31.8915 36.693 34.2476C37.6163 32.5646 38.1386 30.7134 38.1386 28.7628C38.1386 20.9754 29.9796 13.823 19.921 13.823C9.86988 13.823 1.71094 20.9754 1.71094 28.7628C1.71094 30.7134 2.2256 32.5646 3.14897 34.2476C5.91151 31.8915 12.3826 30.2391 19.921 30.2391Z" fill="#74C9EA"/>
<path d="M19.921 30.285C27.4366 30.285 33.9077 31.9297 36.6703 34.2705C37.5936 32.5952 38.1159 30.7593 38.1159 28.824C38.1159 21.0902 29.9645 13.9836 19.9285 13.9836C9.88501 13.9836 1.74121 21.0978 1.74121 28.824C1.74121 30.7593 2.24831 32.6029 3.17924 34.2705C5.92664 31.9297 12.3978 30.285 19.921 30.285Z" fill="#7ACBEB"/>
<path d="M19.9205 30.3385C27.4285 30.3385 33.8921 31.9679 36.6471 34.2934C37.5704 32.6334 38.0851 30.8052 38.0851 28.8851C38.0851 21.2049 29.9489 14.1366 19.9205 14.1366C9.89209 14.1366 1.75586 21.2049 1.75586 28.8851C1.75586 30.8052 2.26296 32.6334 3.18632 34.2934C5.94886 31.9679 12.4049 30.3385 19.9205 30.3385Z" fill="#81CDEC"/>
<path d="M19.9205 30.3845C27.4209 30.3845 33.8694 32.0063 36.6244 34.3088C37.5477 32.6565 38.0624 30.8512 38.0624 28.9387C38.0624 21.312 29.9337 14.2897 19.9205 14.2897C9.90723 14.2897 1.78613 21.312 1.78613 28.9387C1.78613 30.8512 2.29323 32.6641 3.2166 34.3088C5.96399 32.0063 12.4124 30.3845 19.9205 30.3845Z" fill="#87CFEC"/>
<path d="M19.9205 30.4304C27.4134 30.4304 33.8542 32.0369 36.6016 34.3317C37.525 32.6947 38.0397 30.8971 38.0397 28.9999C38.0397 21.4268 29.9261 14.4503 19.928 14.4503C9.92994 14.4503 1.81641 21.4344 1.81641 28.9999C1.81641 30.8971 2.3235 32.6947 3.24687 34.3317C5.9867 32.0445 12.4276 30.4304 19.9205 30.4304Z" fill="#8ED1ED"/>
<path d="M19.921 30.4839C27.3987 30.4839 33.832 32.0827 36.5719 34.3547C37.4877 32.7253 38.0099 30.9429 38.0099 29.0611C38.0099 21.5415 29.9039 14.6033 19.921 14.6033C9.93042 14.6033 1.83203 21.5415 1.83203 29.0611C1.83203 30.9429 2.33913 32.7329 3.25493 34.3547C6.00232 32.0751 12.4356 30.4839 19.921 30.4839Z" fill="#94D3EE"/>
<path d="M19.9207 30.5298C27.3909 30.5298 33.8167 32.1133 36.5489 34.3776C37.4647 32.7635 37.9794 30.9888 37.9794 29.1223C37.9794 21.6562 29.8886 14.7639 19.9131 14.7639C9.93775 14.7639 1.85449 21.6639 1.85449 29.1223C1.85449 30.9888 2.36159 32.7635 3.27739 34.3776C6.02479 32.1133 12.4505 30.5298 19.9207 30.5298Z" fill="#9AD5EF"/>
<path d="M19.9207 30.5758C27.3833 30.5758 33.7939 32.1516 36.5262 34.393C37.442 32.7865 37.9567 31.0271 37.9567 29.1759C37.9567 21.7634 29.8734 14.9093 19.9207 14.9093C9.96045 14.9093 1.88477 21.7634 1.88477 29.1759C1.88477 31.0348 2.39186 32.7942 3.30766 34.393C6.03992 32.1516 12.4581 30.5758 19.9207 30.5758Z" fill="#A0D7F0"/>
<path d="M19.9205 30.6293C27.368 30.6293 33.771 32.1899 36.5033 34.4159C37.4191 32.8248 37.9337 31.0807 37.9337 29.2371C37.9337 21.8781 29.858 15.0699 19.9205 15.0699C9.97534 15.0699 1.90723 21.8858 1.90723 29.2371C1.90723 31.0807 2.40675 32.8324 3.33012 34.4159C6.06238 32.1899 12.4654 30.6293 19.9205 30.6293Z" fill="#A6D9F0"/>
<path d="M19.921 30.6752C27.3609 30.6752 33.7563 32.2281 36.481 34.4389C37.3893 32.8554 37.9039 31.1266 37.9039 29.2983C37.9039 21.9929 29.8434 15.2306 19.9134 15.2306C9.97583 15.2306 1.92285 22.0005 1.92285 29.2983C1.92285 31.1266 2.42238 32.863 3.33818 34.4389C6.07801 32.2281 12.481 30.6752 19.921 30.6752Z" fill="#ACDCF1"/>
<path d="M19.9202 30.721C27.3526 30.721 33.7329 32.2586 36.4576 34.4541C37.3658 32.8859 37.8805 31.1647 37.8805 29.3518C37.8805 22.0999 29.8275 15.3759 19.9202 15.3759C9.9978 15.3759 1.95996 22.0999 1.95996 29.3518C1.95996 31.1724 2.45949 32.8859 3.37529 34.4541C6.09998 32.2663 12.4879 30.721 19.9202 30.721Z" fill="#B2DEF2"/>
<path d="M19.921 30.767C27.3382 30.767 33.7185 32.297 36.4356 34.4695C37.3439 32.9089 37.8585 31.2031 37.8585 29.4054C37.8585 22.2071 29.8207 15.5289 19.921 15.5289C10.0137 15.5289 1.9834 22.2147 1.9834 29.4054C1.9834 31.2107 2.48293 32.9166 3.39872 34.4695C6.11585 32.297 12.5037 30.767 19.921 30.767Z" fill="#B8E0F3"/>
<path d="M19.9207 30.8205C27.3304 30.8205 33.6955 32.3427 36.4127 34.4999C37.3209 32.9547 37.8356 31.2565 37.8356 29.4741C37.8356 22.3293 29.8053 15.6895 19.9207 15.6895C10.0286 15.6895 2.00586 22.3293 2.00586 29.4741C2.00586 31.2641 2.50539 32.9624 3.41362 34.4999C6.13831 32.3351 12.5111 30.8205 19.9207 30.8205Z" fill="#BDE2F4"/>
<path d="M19.9207 30.8664C27.3228 30.8664 33.6804 32.3734 36.39 34.5153C37.2982 32.9854 37.8053 31.3025 37.8053 29.5277C37.8053 22.4365 29.7902 15.8425 19.9207 15.8425C10.0361 15.8425 2.03613 22.4442 2.03613 29.5277C2.03613 31.3025 2.53566 32.9854 3.44389 34.5153C6.15345 32.3734 12.5186 30.8664 19.9207 30.8664Z" fill="#C3E5F5"/>
<path d="M19.9205 30.9123C27.3074 30.9123 33.6575 32.4117 36.367 34.5383C37.2677 33.016 37.7823 31.3484 37.7823 29.5889C37.7823 22.5513 29.7748 16.0032 19.9205 16.0032C10.051 16.0032 2.05859 22.5589 2.05859 29.5889C2.05859 31.356 2.55812 33.0236 3.46635 34.5383C6.17591 32.4117 12.5335 30.9123 19.9205 30.9123Z" fill="#C9E7F5"/>
<path d="M19.9202 30.9658C27.2996 30.9658 33.6345 32.4499 36.3441 34.5612C37.2447 33.0542 37.7594 31.3942 37.7594 29.6501C37.7594 22.666 29.767 16.1561 19.9202 16.1561C10.0659 16.1561 2.08105 22.666 2.08105 29.6501C2.08105 31.4019 2.57301 33.0542 3.48124 34.5612C6.1908 32.4499 12.5408 30.9658 19.9202 30.9658Z" fill="#CEE9F6"/>
<path d="M19.9202 31.0117C27.292 31.0117 33.6194 32.4804 36.3214 34.5764C37.222 33.0771 37.7367 31.4324 37.7367 29.7036C37.7367 22.773 29.7518 16.3091 19.9278 16.3091C10.0886 16.3091 2.11133 22.7807 2.11133 29.7036C2.11133 31.4401 2.60329 33.0848 3.51152 34.5764C6.2135 32.4881 12.556 31.0117 19.9202 31.0117Z" fill="#D4ECF7"/>
<path d="M19.921 31.0577C27.2852 31.0577 33.5974 32.5188 36.2994 34.5995C37.2 33.1154 37.7071 31.4784 37.7071 29.7649C37.7071 22.8879 29.7298 16.4622 19.921 16.4622C10.0894 16.4622 2.13477 22.8879 2.13477 29.7649C2.13477 31.4861 2.62672 33.1154 3.53496 34.5995C6.22937 32.5188 12.5643 31.0577 19.921 31.0577Z" fill="#DAEEF8"/>
<path d="M19.9207 31.1112C27.2698 31.1112 33.582 32.557 36.2764 34.6224C37.1771 33.146 37.6842 31.5319 37.6842 29.8184C37.6842 22.9949 29.722 16.6151 19.9207 16.6151C10.1042 16.6151 2.15723 23.0026 2.15723 29.8184C2.15723 31.5319 2.64918 33.146 3.55742 34.6224C6.25183 32.557 12.5792 31.1112 19.9207 31.1112Z" fill="#DFF1F9"/>
<path d="M19.9207 31.1571C27.2622 31.1571 33.5593 32.5952 36.2537 34.6453C37.1468 33.1766 37.6615 31.5778 37.6615 29.8796C37.6615 23.1097 29.7069 16.7758 19.9283 16.7758C10.127 16.7758 2.1875 23.1173 2.1875 29.8796C2.1875 31.5778 2.67946 33.1766 3.58012 34.6453C6.26697 32.5952 12.5867 31.1571 19.9207 31.1571Z" fill="#E5F3FA"/>
<path d="M19.9202 31.203C27.2542 31.203 33.5437 32.6335 36.223 34.6607C37.1161 33.2072 37.6231 31.6161 37.6231 29.9332C37.6231 23.2168 29.6837 16.9211 19.9126 16.9211C10.1265 16.9211 2.20215 23.2168 2.20215 29.9332C2.20215 31.6161 2.69411 33.2072 3.59477 34.6607C6.28919 32.6335 12.5938 31.203 19.9202 31.203Z" fill="#EBF6FB"/>
<path d="M19.9209 31.2566C27.2398 31.2566 33.5217 32.6718 36.201 34.6836C37.0941 33.2455 37.6012 31.662 37.6012 29.9944C37.6012 23.3315 29.6693 17.0818 19.9134 17.0818C10.1348 17.0818 2.22559 23.3392 2.22559 29.9944C2.22559 31.6697 2.71754 33.2378 3.61821 34.6836C6.30506 32.6718 12.6097 31.2566 19.9209 31.2566Z" fill="#F1F8FD"/>
<path d="M19.9209 31.3024C27.2322 31.3024 33.5066 32.71 36.1783 34.7065C37.0714 33.276 37.5785 31.7079 37.5785 30.0555C37.5785 23.4463 29.6617 17.2347 19.9209 17.2347C10.1575 17.2347 2.25586 23.4463 2.25586 30.0555C2.25586 31.7155 2.74025 33.276 3.64091 34.7065C6.32776 32.71 12.6173 31.3024 19.9209 31.3024Z" fill="#F7FBFE"/>
<path d="M19.9209 31.3483C27.2246 31.3483 33.4839 32.7405 36.1556 34.7218C37.0487 33.3066 37.5558 31.7537 37.5558 30.1091C37.5558 23.5533 29.6466 17.3877 19.9209 17.3877C10.1726 17.3877 2.28613 23.561 2.28613 30.1091C2.28613 31.7537 2.77052 33.299 3.67118 34.7218C6.3429 32.7405 12.6324 31.3483 19.9209 31.3483Z" fill="white"/>
</g>
<path d="M19.9207 24.8002C13.5328 24.8002 7.6066 25.8864 2.70215 27.7376C5.63876 34.4005 12.2461 39.0362 19.9358 39.0362C27.5952 39.0362 34.1951 34.4005 37.1392 27.7376C32.2424 25.8941 26.3162 24.8002 19.9207 24.8002Z" fill="#0083CA"/>
</g>
</g>
<defs>
<clipPath id="clip0_6517_19710">
<rect width="40" height="40" rx="20" fill="white"/>
</clipPath>
<clipPath id="clip1_6517_19710">
<rect width="40" height="40" fill="white"/>
</clipPath>
</defs>
</svg>
